<svg xmlns="http://www.w3.org/2000/svg" viewBox="0 0 139.764 200">
  <path d="M23.775 130.997h-3.303c-.234 0-.524.129-.87.387l-.699.387c-2.903 3.114-4.759 5.195-5.57 6.235-.35 1.041-1.016 2.336-2.004 3.888-.988 1.557-1.48 2.602-1.48 3.114l1.916-1.36c1.391-1.04 2.61-2.14 3.658-3.31 2.9-2.073 4.755-3.63 5.57-4.67 1.395-1.041 2.093-1.816 2.093-2.34v-.774zM37.004 130.997c-.464-.512-1.161-.783-2.089-.783h-4.872c-.928 0-1.682.525-2.263 1.557-1.742 1.04-3.307 3.38-4.698 7.01v.782c0 .516-.234.775-.698.775l-1.395 2.339c-1.739 4.287-2.9 6.884-3.481 7.788 5.11-5.715 9.982-10.644 14.624-14.798.928-1.04 1.855-1.815 2.783-2.339 1.395-1.033 2.09-1.81 2.09-2.331z" fill="#003a37"/>
  <path d="M24.594 18.936c1.896 0 3.557 1.657 4.977 4.977-.476 2.375-1.662 5.46-3.553 9.252h.71c1.782-1.424 2.964-2.194 3.557-2.311h2.847l.714.887v.714C31.946 39.573 31 43.602 31 44.555v1.423h.71l3.557-9.252h.714l-2.848 17.798L31 55.948c-2.259-1.424-3.445-4.513-3.561-9.252l1.423-10.68c-4.743 4.747-7.65 7.123-8.72 7.123-.354 0-.774-.952-1.246-2.848v-1.424c3.796-6.053 5.695-11.744 5.695-17.08v-2.851z" fill="#870000"/>
  <path d="M39.795 92.053c-.464 0-1.63-.783-3.485-2.34-.81-.512-1.508-1.294-2.089-2.339-.464 0-.814-.258-1.044-.774a3.755 3.755 0 01-.347-1.557c-2.323-3.114-6.038-6.751-11.14-10.906.928.525 1.739 1.694 2.436 3.51.698 1.818 1.279 3.246 1.743 4.286 2.202 3.63 3.597 5.97 4.178 7.01.464 1.557.698 2.597.698 3.114l.693 1.359c.464.653.698 1.238.698 1.754l-.35.775a3.786 3.786 0 00-.348 1.56c0 .52.464 1.041 1.392 1.565.464.517.927.775 1.391.775.815 0 1.973-.258 3.48-.775 1.396-1.04 2.094-2.601 2.094-4.678zM55.807 133.332c0-.516-.464-1.557-1.392-3.114-1.391-1.556-3.02-4.67-4.872-9.34-2.904-6.236-4.529-10.91-4.876-14.024v-5.452c0-.908-.758-1.428-2.262-1.557-3.719 0-5.978.262-6.792.782-1.743.387-2.674 1.166-2.787 2.331 0 .52.698 1.823 2.089 3.896 4.989 10.902 7.486 16.88 7.486 17.912 1.855 6.106 2.843 9.482 2.956 10.123v1.557c0 1.564 1.157 2.339 3.484 2.339h.698c1.738 0 2.9-.258 3.48-.775 1.86-1.173 2.788-2.726 2.788-4.678zM39.795 136.446h-2.093c-.464.524-.928 1.823-1.392 3.896-.463 1.944-.693 4.283-.693 7.01V161.373c1.391-3.633 3.017-8.57 4.876-14.805 0-.516.113-1.424.347-2.723.23-1.294.347-2.206.347-2.726 0-2.069-.464-3.634-1.392-4.674z" fill="#003a37"/>
  <path d="M41.675 14.66c3.319 1.311 5.69 2.969 7.118 4.981v.714c0 .952-1.19 4.033-3.561 9.252h.71c6.166-1.9 10.913-2.851 14.237-2.851 3.436.952 5.098 1.904 4.977 2.851 0 .827-3.558 1.243-10.672 1.243l-2.848 1.6-.89-.713-6.228.714h-.71c-2.254 3.444-4.626 5.102-7.118 4.985v-.718c2.964-3.436 5.335-8.897 7.118-16.367v-1.423z" fill="#870000"/>
  <path d="M50.217 33.878c2.847 3.328 4.27 7.119 4.27 11.394-.95 12.805-3.084 19.21-6.404 19.21h-.714c-.476 0-.947-.944-1.423-2.847-4.271-2.25-6.4-4.626-6.4-7.115 2.846 1.424 4.976 2.134 6.4 2.134h1.423c1.428 0 2.376-4.271 2.852-12.814l-1.424-7.828c.468-1.428.944-2.134 1.42-2.134z" fill="#870000"/>
  <path d="M67.648 175.39c-2.206-5.703-4.295-14.274-6.267-25.696-.464-3.77-1.162-6.102-2.09-7.013-2.206-1.952-4.763-2.985-7.663-3.114-1.278 0-1.976 2.077-2.089 6.227 0 1.557.085 3.114.262 4.675.174 1.557.75 3.113 1.739 4.67.984 1.557 1.71 2.606 2.178 3.122 2.786 6.618 4.178 13.37 4.178 20.25V183.182c0 .907.928 1.427 2.783 1.557 2.787 0 5.34-1.3 7.663-3.896.927-1.041 1.391-1.815 1.391-2.336zM75.311 96.727c-.464-1.04-1.625-1.557-3.485-1.557l-2.782 1.557c-3.715 2.073-7.43 7.788-11.144 17.137 1.395-1.04 3.598-2.856 6.618-5.453 3.017-2.601 5.453-4.416 7.312-5.457 2.203-1.427 3.598-2.726 4.183-3.888v-.782c-.004-.52-.242-1.04-.702-1.557zM121.273 76.473c-13.93 3.77-26.466 11.038-37.605 21.81-5.574 5.712-9.986 11.423-13.233 17.138-3.832 5.194-7.312 10.901-10.446 17.137-.928 1.944-1.391 3.5-1.391 4.67v1.557l1.044.782 1.045.775 1.395-1.557v-3.9c.46-1.42 1.335-3.243 2.61-5.445.923-2.081 3.484-7.01 7.659-14.802 3.363-5.707 7.598-11.163 12.708-16.354 10.212-9.345 22.287-16.613 36.214-21.811zM80.183 92.053c0-.517-.347-1.17-1.044-1.952-.694-.775-1.279-1.162-1.743-1.162-.464-.52-1.161-.782-2.089-.782-4.642 0-9.054 1.556-13.233 4.67h5.917c3.02 0 5.223.266 6.618.782 1.392.517 2.55.775 3.48.775 1.396-.125 2.094-.904 2.094-2.331zM80.88 151.251c0-.395-.463-.653-1.39-.782l-3.481 1.557c-.464 0-1.392.782-2.787 2.339-.81 2.073-2.436 5.71-4.872 10.901l8.357-9.34c1.855-1.557 3.016-2.602 3.48-3.114zM88.54 157.478c0-.516-.468-1.17-1.392-1.944-.931-.782-1.859-1.17-2.787-1.17-2.323.517-3.948 1.816-4.876 3.897-2.904 3.63-4.295 9.345-4.178 17.129 0 2.468.234 5.065.698 7.792.927-3.251 2.089-6.623 3.48-10.123 1.743-4.67 3.134-7.793 4.183-9.35.464-.516.927-1.16 1.391-1.943.464-.783.928-1.428 1.392-1.944 1.395-1.045 2.089-1.823 2.089-2.344z" fill="#003a37"/>
  <path d="M95.505 116.978c-.815-1.557-2.904-2.34-6.267-2.34-4.643 0-6.966.783-6.966 2.34 0 .387.351.875 1.049 1.464.694.584 1.044 1.133 1.044 1.653.464 1.04.698 2.34.698 3.896v3.114c0 .516-.117 1.298-.35 2.339-.235 1.04-.348 1.815-.348 2.331v1.557c.464.395.698 1.17.698 2.34 0 .515-.117 1.169-.35 1.943-.235.783-.348 1.436-.348 1.952v14.015l.698-.774 4.179-4.67 2.093-1.565c0 .524.464.782 1.391.782.928 0 1.392-.782 1.392-2.339 0-1.032-.117-2.46-.347-4.283-.234-1.815-.347-3.243-.347-4.287v-.775l.347-.782c.23-.512.347-1.033.347-1.557v-6.034c0-3.242.173-5.65.524-7.207l.52-.774c.234-.516.347-1.04.347-1.565v-.774zM96.896 89.713c-2.782 1.944-5.105 3.771-6.965 5.457-1.391 1.557-2.38 2.335-2.956 2.335v4.679c-.351.512-.524 1.04-.524 1.557v3.113h-.694c-.468.517-.698 1.04-.698 1.557 0 .387.23.912.698 1.557.46 1.557 1.391 2.34 2.783 2.34h2.089c.928 0 1.855-.259 2.787-.783l2.089-.775c.928-1.04 1.391-1.815 1.391-2.339l-.693-.782v-3.892c0-4.154.23-7.796.693-10.91 0-.387.117-.742.351-1.065.23-.326.347-.75.347-1.266s-.234-.783-.698-.783zM98.986 64.01c-.464 0-1.392.262-2.783.783h-2.09c-1.855 0-3.02.258-3.484.774l-.694 3.896c-.468 4.287-1.161 8.958-2.089 14.023 0 .387-.145 1.138-.435 2.239-.29 1.1-.432 1.92-.432 2.436v4.67h1.565c1.391-.903 3.424-2.726 6.094-5.453l1.565-.774 1.391-.783v-3.888c.46-1.556.81-3.242 1.045-5.065.23-1.815.347-2.985.347-3.5v-2.34c0-1.033.23-1.815.693-2.34l.698-1.556c.004-2.081-.46-3.122-1.391-3.122zM103.862 18.835h-.698c-.464 0-.694-.258-.694-.783-2.206.525-4.065 1.17-5.574 1.952-1.508.775-2.262 1.944-2.262 3.501l.52.783.347.774v.782c-.464 1.428-.928 4.03-1.391 7.788-.928 7.143-1.626 12.854-2.09 17.137v4.67c-.467 1.558-.697 2.796-.697 3.7v1.754c.927.524 1.625 1.04 2.089 1.556H95.5c3.832 0 5.92-.774 6.268-2.33l-.694-2.34V55.44c0-.517-.117-1.17-.351-1.944-.234-.783-.347-1.428-.347-1.944 0-4.154.928-11.946 2.783-23.372V24.679c0-.258.234-.645.698-1.17l1.391-1.557c.008-.52-.46-1.56-1.387-3.117zM100.381 155.922l-1.044-.783c-.694-.516-1.279-1.032-1.743-1.557h-2.956c-2.206 0-3.307.263-3.307.783l.697.774v.783l-.697.774v.782c0 1.944.697 3.243 2.089 3.896.46.517 1.04 1.041 1.738 1.557a11.43 11.43 0 011.743 1.557l1.391.774c.928.525 1.625 1.041 2.093 1.565.464.904 1.158 2.46 2.09 4.67.927 2.078 1.62 3.635 2.089 4.671l3.48 10.91h.698v-3.896c-.004-12.983-2.791-22.066-8.36-27.26zM121.97 166.049c-1.855-4.8-4.178-8.7-6.965-11.68 0-.516-1.161-2.077-3.48-4.67-1.743-2.602-3.134-3.9-4.179-3.9l-1.395.387-1.392.387-.693-.775h-.351c-.234 0-.58.13-1.04.388l-.698.387c-1.392.524-2.094 1.823-2.094 3.896 0 1.952.932 2.992 2.787 3.113h1.041c.234 0 .815.263 1.742.783 1.855.516 5.106 3.113 9.748 7.784.46 0 1.392.653 2.787 1.952 1.392 1.299 2.55 2.46 3.48 3.505l1.392 1.557c.004-.646-.23-1.686-.69-3.114zM107.346 96.727c-1.395-1.04-2.323-1.557-2.787-1.557-.927-.516-2.323-.782-4.178-.782.464 1.04.928 2.34 1.392 3.896 0 .516.233 1.04.697 1.557.464.52.694 1.04.694 1.556 1.855 2.078 3.247 3.114 4.178 3.114 1.275 0 2.202-.774 2.787-2.331.464-.516.698-1.04.698-1.557-.117-1.04-1.279-2.34-3.48-3.896zM128.936 100.623c-.464 0-1.162-.653-2.09-1.952-.927-1.29-1.629-2.206-2.093-2.73-1.738-1.557-3.13-2.848-4.178-3.888-3.714-3.243-6.965-5.324-9.748-6.236-1.279-.516-2.44-.774-3.485-.774-.931 0-1.859.258-2.787.774-1.391.525-2.089 1.557-2.089 3.122 0 .516.694 1.299 2.09 2.331.927.525 2.319 1.04 4.182 1.557 1.855.524 3.017.782 3.48.782 1.396.388 6.966 2.73 16.718 7.014z" fill="#003a37"/>
</svg>