<svg xmlns="http://www.w3.org/2000/svg" viewBox="0 0 139.764 200">
  <path d="M41.01 159.237c-.46-.948-1.15-1.896-2.066-2.847h-.686c-.342 0-.576-.238-.69-.714l.348-.355c.113-.238.46-.472 1.032-.714l.686-.355c.92-.472 1.609-.948 2.073-1.428h-.694c-.46 0-.92-.117-1.38-.35-.459-.239-.802-.364-1.032-.364-.23 0-.576.242-1.032.714h-1.376c-1.839.476-2.754 1.662-2.754 3.561 0 1.307.915 2.493 2.754 3.554h-.685l.685.714-.685.354-.69.351c-1.375.48-2.069 1.606-2.069 3.38v3.735h-1.38l-.858-.71c-1.267-.472-2.126-1.48-2.585-3.025-.456 0-.686-.645-.686-1.956v-.706c.46-1.895 1.835-4.033 4.13-6.408.46 0 .69-.472.69-1.424l3.448-3.561c0-.472-.69-.706-2.065-.706-1.84 0-3.219.706-4.134 2.13-.92.475-1.38 1.423-1.38 2.855 0 .948.46 1.423 1.38 1.423h.69-.69c0 .472-.46.952-1.38 1.424-1.37.948-2.294 1.424-2.75 1.424h-3.456c.455-.948.685-1.662.685-2.138.347-.472.52-.943.52-1.423 0-.472-.173-1.186-.52-2.138-.92-1.424-1.835-2.13-2.754-2.13l-.686-.717 2.069-.706.686-.714c.802 0 1.492.246 2.064.714H31.362c0-.36-.283-.597-.86-.714-4.593-.944-7.517-2.367-8.784-4.267-.92-.952-1.375-1.662-1.375-2.142 0-.472.113-1.177.343-2.13.23-.947.343-1.66.343-2.133v-1.423h1.895l1.55.717c2.294.948 4.13 1.892 5.508 2.844l.517.71c-1.267-3.917-3.505-6.518-6.72-7.829-1.262-.472-2.496-.71-3.698-.71-1.21 0-2.04.71-2.496 2.134l.342.714.347.714c0 .472-.347 1.427-1.036 2.843-.686 1.424-1.033 2.315-1.033 2.67 0 1.424.23 2.67.69 3.739 0 .472.23.83.685 1.065.456.242.92.596 1.376 1.068h-2.062c-1.725.952-2.64 1.904-2.758 2.848v.718c.456.947.686 1.657.686 2.13.46 0 .92.241 1.38.713l.689.714c-.807 2.25-1.27 3.912-1.38 4.977 0 .48.23 1.186.69 2.137.46.948 1.605 1.666 3.444 2.138.46 0 1.267-.238 2.416-.714 1.146-.472 1.948-.714 2.412-.714v.714l-.69.714c0 2.25 1.154 4.384 3.445 6.4l1.38 1.428c.919.351 2.294.557 4.13.621 1.834.06 2.984-.62 3.443-2.048.92-.476 1.376-1.658 1.376-3.554l-.686-.718v-.71c0-.471.113-.77.343-.895h1.722c.456 0 .686-.173.686-.528h.69c1.383-.952 2.068-1.9 2.068-2.856.008-.471-.451-1.177-1.37-2.13z" fill="#3b67e2"/>
  <path d="M69.943 118.667H67.01c-.803 0-1.436-.238-1.892-.713h-2.758c-4.594.475-8.724 3.089-12.398 7.828 3.214-2.368 7.118-3.553 11.712-3.553H64.426c1.726 0 2.871.476 3.444 1.423v1.424c-.46.952-.92 1.662-1.38 2.13-1.839 1.903-3.444 3.323-4.82 4.279-1.27.948-3.56 1.42-6.888 1.42-1.722 0-3.561-.234-5.513-.714l.69.713h.69-.69c-.46.476-.46 1.186 0 2.134l1.379 1.428v2.839h-3.444c-.92 0-1.896.71-2.928 2.134l-.517.532c0 .48-.234.774-.685.887h-.686c0-.472-.234-.77-.69-.887-.46 0-1.032.15-1.722.448-.69.298-1.496.44-2.412.44l-.69-.888c1.727-.827 2.868-1.714 3.445-2.67l.694-.71c.456.476.915.71 1.375.71.916 0 1.549-.948 1.892-2.843l1.548-1.428v-.71l.69-.714-1.375-.71c-1.267 0-2.416.71-3.445 2.134l-.685 1.428c-.464 0-.924-.242-1.384-.714-.46 0-.69-.238-.69-.714.92 0 1.61-.238 2.074-.71l.685-.714h.69l-4.824-1.423c-3.214-1.424-5.05-2.368-5.513-2.848-1.38-.944-2.121-3.085-2.238-6.409v-2.847c0-1.303.286-2.012.859-2.133.46.475.92.713 1.38.713l2.068.533v2.311l.69 2.137c1.718 2.259 5.392 4.868 11.018 7.833v-.714c-4.13-2.848-6.658-5.695-7.574-8.538a6.85 6.85 0 01-.686-3.025c0-3.795 1.836-6.82 5.51-9.075.455-.476 1.488-1.069 3.101-1.782 1.601-.706 2.638-1.303 3.098-1.775.92-.472 1.379-.952 1.379-1.424l-.686-.718a12.031 12.031 0 00-2.758-.71h-.69c-1.375.355-2.989 1.065-4.82 2.134-3.678 2.372-5.973 4.985-6.888 7.828 0 .48-.234.952-.69 1.424h-2.069l-1.38.718-.338.706c-.234.476-.577.71-1.032.71-.924 0-1.84.476-2.76 1.427-.919.835-1.374 2.017-1.374 3.562 0 1.423.225 2.61.69 3.553 0 .83.23 2.02.685 3.561l1.38.714c.919 1.428 2.294 2.376 4.13 2.847.463 0 1.149.238 2.068.71-1.375.476-2.069 1.186-2.069 2.138 0 .948.464 1.661 1.38 2.137.919 0 1.379.234 1.379.706-2.295 1.424-3.449 2.848-3.449 4.267v1.428l.69.714c.92 1.424 1.835 2.137 2.759 2.137.456 0 1.258-.12 2.412-.363 1.15-.233 1.948-.35 2.407-.35l.69.713h3.444c1.267 0 2.416-.713 3.445-2.137v-.714c.455-.476.92-.71 1.379-.71h3.102c.112 0 .342-.238.69-.718l.346-.887.686-.532c.455-.476.69-.944.69-1.424v-2.13c.455-.476.689-.955.689-1.427l-.69-1.428c.456 0 1.263.125 2.412.359 1.15.234 2.178.355 3.102.355 2.29 0 4.533-1.186 6.715-3.561 2.867-2.368 4.537-4.506 4.993-6.405v-2.134c-.008-2.484-.698-4.142-2.073-4.973z" fill="#3b67e2"/>
  <path d="M29.309 27.837c1.448.968 2.174 1.686 2.174 2.174l-.722 5.061h1.448c-3.985 5.316-7.123 7.966-9.414 7.966l-.722-.722-.722 7.235.722 12.31c-.48 1.33-.968 2.052-1.443 2.17-1.448 0-2.662-1.687-3.622-5.066l1.448-15.931v-6.518l-.904-5.787.904-.722c1.452 0 2.653 1.206 3.617 3.613 2.295-.839 4.223-1.327 5.792-1.448l-.722-2.165-5.066 2.165-.722-1.443v-.722c-.008-.484 2.642-1.202 7.954-2.17zm10.135-12.31h.722c4.344.969 6.518 1.686 6.518 2.17l-.726 1.448v.726l5.07-.726c3.016.488 4.46 1.206 4.343 2.174v.73c0 .48-.488.718-1.452.718H43.784c-3.38 2.896-6.034 4.344-7.966 4.344h-.726l4.348-4.344v-.718l-8.687 2.166v.726c0 1.327-.484 2.295-1.448 2.896h-1.452l-1.448-2.896a9.275 9.275 0 01-4.344 1.448c-.48 0-1.69-.968-3.617-2.896h1.451l5.61-.726-.544-4.344h.545l3.799 2.896c0-.48.48-.968 1.448-1.448v1.448c6.634-.48 9.954-1.206 9.954-2.174v-.722h.907zM23.517 38.695v-.726l1.448-2.166H22.07v3.622c3.376-.48 5.066-1.694 5.066-3.622v-.73zm27.51-13.031c3.017.484 4.461 1.444 4.344 2.892l-.726 7.243 1.448 28.954c0 .488-.722 1.214-2.174 2.174h-.722c-2.416-.96-4.823-2.654-7.24-5.066v-.725l4.344.725c.48 0 .726-.963.726-2.895v-20.27h-5.795l-1.448-.727c0 1.815-.484 2.783-1.448 2.904l-.722-2.178-5.07 2.178v1.444l5.792-.726c2.416.488 3.622 1.444 3.622 2.892v1.448c0 1.814-1.448 4.226-4.344 7.243l-3.618-.73h-1.452v.73c6.276 1.444 9.414 3.622 9.414 6.514l-.726.722c-.968 0-3.618-1.505-7.962-4.526h-.73l.73 6.7c0 1.326-.488 2.052-1.452 2.17-1.81 0-3.984-1.69-6.513-5.066v-.726h.726l3.618 1.448v-5.07c-3.864 3.38-7.486 5.07-10.862 5.07V58.96c1.448 0 3.618-1.448 6.518-4.344-1.452 0-2.714-3.622-3.8-10.857l.904-.726 2.178 1.448c3.376-.48 5.066-.96 5.066-1.448v-.722h-2.174l.726-.726c-2.42 0-3.618-.242-3.618-.722.48-.851 2.174-1.569 5.066-2.178l-1.448-5.07h.722c2.895 0 4.347 1.21 4.347 3.622h2.892l.545-8.691.907-.722c.964 0 1.928.968 2.896 2.896l4.166-.722c1.448 0 2.23.238 2.351.722v.725c-1.81 1.807-3.5 2.775-5.07 2.896v-1.63h-2.173v3.078h7.243V30c0-.968-.484-1.694-1.447-2.174h-.908l-4.166 1.448h-.726l-1.448-1.448v-.726zM30.035 45.93h-.726L30.757 51l2.896-.723v-1.444h-.726c-1.444 0-2.17-.242-2.17-.73v-.722l2.896-.725v-.73h-3.618zm6.513-1.448v.726l.73-.726h2.17l.722 1.448c0 .488-.964 1.693-2.892 3.621h1.448c.48 0 1.444-1.928 2.896-5.791-3.384.004-5.074.246-5.074.722z" fill="#870000"/>
  <path d="M50.22 174.894c-1.548-.948-2.814-1.783-3.786-2.493-.976-.714-1.868-1.783-2.67-3.206 0-.944-.23-1.424-.686-1.424-.92 1.424-1.375 2.847-1.375 4.275v.706c0 1.9.685 3.561 2.065 4.985.455.94 1.38 1.658 2.754 2.13 1.835.83 4.364 1.27 7.579 1.334 3.214.065 6.203-.383 8.957-1.335-.464 0-1.839-.354-4.134-1.064-2.299-.718-3.936-1.307-4.912-1.783-.98-.464-2.238-1.174-3.791-2.125zM52.548 160.66c0-.951-.174-3.795-.52-8.546h-.686c-1.84.952-2.989 2.614-3.444 4.985v.714c0 2.376.92 4.505 2.758 6.405.456.355 2.525 1.778 6.2 4.267-2.413-3.791-3.852-6.4-4.308-7.824z" fill="#00082d"/>
  <path d="M57.54 113.682c-.919-1.302-1.838-2.25-2.754-2.843l-.69-.355-.685-.355c-.464-.476-.807-1.181-1.037-2.137l-.342-1.424c-.456.948-.686 1.658-.686 2.13 0 .951.573 2.016 1.722 3.206 1.15 1.186 1.722 2.726 1.722 4.622v1.424l-.69.713c-.46.355-.975.835-1.548 1.424v1.424c.456 0 .968-.238 1.549-.706l1.379-.718c1.375-.827 2.065-2.25 2.065-4.267v-2.138z" fill="#3b67e2"/>
  <path d="M60.985 141.439c-1.722.83-2.871 1.544-3.444 2.137-.92 1.424-1.38 3.795-1.38 7.115 0 3.916 1.38 7.711 4.139 11.393l.342.351.343.355c-.806-1.895-1.266-4.505-1.38-7.82 0-3.444.23-6.292.69-8.542.456-.952.8-2.017 1.029-3.203l.347-1.782h-.686zM79.586 62.437c-2.871-1.895-5.396-2.843-7.578-2.843h-.686c-1.375 0-2.984.242-4.823.714-.46 0-1.263.117-2.408.355l-1.726.35-1.376.714h.69c3.327.952 5.852 2.376 7.574 4.272 3.67 2.254 5.453 5.101 5.34 8.546.456.472.746.952.86 1.423 0 2.372-1.15 5.457-3.445 9.253-1.835 2.371-2.755 4.742-2.755 7.114-.92 2.847-1.375 6.405-1.375 10.676 0 2.847.23 5.69.69 8.542 1.835-6.643 3.67-12.575 5.509-17.794 1.262-2.965 2.182-4.622 2.755-4.985 0-.472.342-.948 1.032-1.424.686-.472 1.032-.944 1.032-1.428 3.67-3.315 5.51-7.114 5.51-11.381 0-4.747-1.61-8.78-4.82-12.104zM120.232 63.86c1.835 4.276 2.755 9.02 2.755 14.238 0 1.904-.234 3.323-.694 4.271-.92 6.647-2.75 11.866-5.51 15.657-2.294 3.916-5.738 7.711-10.332 11.39-2.186 2.254-9.99 8.425-23.42 18.503-1.723 1.424-3.562 3.328-5.514 5.695-5.513 6.522-8.498 13.882-8.953 22.066-.46 2.847-.69 4.75-.69 5.69 0 4.276.69 9.015 2.069 14.237 0-13.76 3.444-25.384 10.333-34.874 2.182-3.912 4.477-6.526 6.888-7.829.46-.471 1.263-1.181 2.412-2.133 1.15-.944 1.948-1.424 2.408-1.424l5.51-4.27c10.562-8.184 18.14-15.303 22.738-21.352 2.291-2.965 3.445-4.626 3.445-4.981 1.722-3.8 2.867-8.067 3.444-12.814v-1.423c-.004-6.764-2.303-13.645-6.889-20.646z" fill="#00082d"/>
  <path d="M106.451 66.712c-.46-5.573-2.525-11.038-6.203-16.378-3.214-4.384-7.119-7.712-11.708-9.958-5.51-3.327-10.793-5.457-15.847-6.409 2.76 1.775 4.594 3.198 5.518 4.271 1.375.948 3.21 2.372 5.51 4.267l4.823 5.7c4.13 3.319 6.828 7.114 8.094 11.385.456.948.746 3.795.855 8.542v1.428c0 4.739-1.145 9.724-3.44 14.943a401.203 401.203 0 01-8.954 11.39c-2.758 3.319-5.283 7.356-7.578 12.099-2.754 6.642-5.513 16.612-8.268 29.897v2.13-.71c3.67-7.118 8.268-16.842 13.782-29.18l4.13-7.118c.46-.944 1.379-2.013 2.758-3.199 1.375-1.185 2.291-2.02 2.755-2.492 6.888-6.994 11.022-13.878 12.402-20.642.911-2.254 1.371-5.578 1.371-9.966zM128.496 142.862c0-.472-.117-1.008-.347-1.597l-.338-.532v-2.134c0-.943-.234-1.895-.694-2.847-2.755-2.852-5.965-4.743-9.647-5.695-1.836-.472-3.44-.714-4.82-.714-2.182 0-4.937.48-8.264 1.424-5.058 1.9-11.023 5.933-17.907 12.095-6.433 6.171-10.394 12.58-11.886 19.222-.339 2.259-.516 5.336-.516 9.252 0 5.691.69 11.628 2.069 17.79 0-6.525.686-13.168 2.065-19.927 1.835-7.115 3.9-12.1 6.195-14.943l5.513-5.69c3.787-3.917 7.921-6.998 12.398-9.257 3.674-1.895 6.602-2.843 8.78-2.843h.863c2.868 0 4.937.948 6.2 2.843.342 0 .689.355 1.036 1.065l.343 1.073c.915 1.31 1.375 2.254 1.375 2.847v.714c0 2.964-1.146 5.336-3.444 7.114-2.295 2.372-5.965 4.985-11.019 7.829v.714c.46 0 .916-.234 1.375-.714 7.236-1.424 12.515-4.03 15.847-7.829 1.722-1.774 3.101-3.67 4.134-5.69l.338-1.424.347-1.424v-.722z" fill="#00082d"/>
  <path d="M101.627 157.813h-3.44c-2.186 0-4.25.238-6.203.71-6.776 3.44-11.135 11.273-13.088 23.485 5.05-8.062 10.793-14.47 17.222-19.218 2.759-1.895 5.283-3.32 7.578-4.267h-.685l-.69-.355z" fill="#00082d"/>
</svg>