<svg xmlns="http://www.w3.org/2000/svg" viewBox="0 0 139.764 200">
  <path d="M35.492 123.862c0-.496-.355-.875-1.06-1.13l-1.062-.37a9.953 9.953 0 00-1.766-2.63 14.108 14.108 0 00-2.118-1.883c-.705-.5-1.298-.75-1.766-.75h-1.411c-1.416.879-2.118 1.625-2.118 2.254v.75l-.706.754v1.505c0 1.004.706 2.25 2.118 3.755l1.411 1.508c.472.5 1.88 1.008 4.239 1.504h4.243c1.294-1.004 2.004-2.008 2.117-3.012-.12-.504-.827-1.25-2.121-2.255zM61.643 151.67c-.468-1.004-1.178-2.258-2.118-3.758-1.298-1.505-3.42-2.509-6.36-3.005l-.706-.754h-.883c1.412-1 3.59-2.255 6.538-3.755 0-.5.113-.754.35-.754.235 0 .468-.13.706-.375.234-.25.351-.625.351-1.13-.826 0-1.532.255-2.121.759-4.707 3.5-8.716 6.505-12.015 9.014l-.35.37c-.239.255-.654.384-1.239.384l-.532.746c-.472-.5-.706-1.246-.706-2.25-.944-1.005-2.118-2.009-3.533-3.01-.944 0-1.654-.253-2.118-.75l-.354-.939-.355-1.323c-.944-2.5-3.356-3.75-7.244-3.75-1.299 0-2.182.25-2.65.75l-2.117 2.258c-1.412 1.38-2.122 2.222-2.122 2.529 0 .314.117.597.355.847.234.254.355.629.355 1.13v1.5l1.412 1.504-1.412.754h-.71c-.471 0-.943.371-1.415 1.121-.472.754-.94 1.13-1.412 1.13h-2.121c-1.412.504-3.061 2.008-4.949 4.509-.472 0-.706.254-.706.754v1.31c-.472.505-.943 1.323-1.415 2.449.94 2.508 2.589 3.755 4.948 3.755h.706c.468-.5.823-.75 1.057-.75.234 0 .589.374 1.06 1.129l.706 1.125c.94 0 2.118-.754 3.533-2.259.472-.496.71-1.004.71-1.5v-.758c0-.496.113-.996.351-1.505.234-.5.823-.903 1.767-1.218.94-.31 1.524-.476 1.766-.476s.476-.181.71-.556l.355-.758h7.07c0 .504-.476.94-1.416 1.31-1.883 1.513-3.355 2.328-4.416 2.449h-1.94c-1.887 0-3.529.75-4.949 2.254v.754c-.826.5-1.294 1.255-1.415 2.259l-.702.75h.702c-.472.504-1.178.754-2.118.754-.943.5-1.653 1.5-2.121 3.005-.472.5-.706 1-.706 1.508 0 .496.234.997.706 1.5.468 0 .706.25.706.747l-.706 1.512c-.472 0-.706.496-.706 1.5 0 2.001 1.412 3.501 4.239 4.51.468.375 1.174.564 2.117.564 1.42-.383 2.122-1.569 2.122-3.57V176.468l1.415-.755.706-.375c.472-.254.94-.629 1.416-1.129 0-.375.234-1.375.706-3 1.294-4.014 2.472-6.518 3.533-7.523l2.827-3.004.35-.75.356-.755c.468-.996.94-1.56 1.415-1.693v4.327c0 2.259-.475 4.388-1.415 6.389 0 .5-.238 1.254-.706 2.254-.476 1.004-.71 1.75-.71 2.259 0 .5.351 1.254 1.06 2.258.707.996 1.533 1.5 2.473 1.5.468 0 1.416-.254 2.831-.754.468-.5 1.178-1.504 2.118-3.004.823-1.5 1.238-2.509 1.238-3.009 0-.496-.181-1.004-.532-1.504l-.355-.38c-.234-.25-.351-.5-.351-.75 0-.254.117-.5.35-.754l.356-.375.532-.75v-.754l-1.238-4.51c0-1.004-.472-1.814-1.416-2.448l-2.121-2.065c0-.5.706-.996 2.121-1.504l1.416-1.5 1.238.754 1.59.746c.939 1.004 1.415 2.517 1.415 4.513l-.706.75V164.436l-.35.568c-.239.5-.356 1.061-.356 1.69 0 1.004.706 1.75 2.122 2.25.467 0 .822-.12 1.06-.37.238-.25.472-.375.71-.375.234 0 .355.129.355.375v.37l1.416-1.504v-.746c1.29-1.38 2-2.88 2.117-4.513 0-2.5-1.412-5.009-4.243-7.514-.944-1.5-2.117-2.504-3.533-3.004l-.706-.755 1.412-2.25c1.883-1.008 3.061-1.754 3.537-2.259l1.416-1.5c.35 0 1.056 1.004 2.117 3.005v3.759c0 .5.351.879 1.06 1.129.707.25 1.058.875 1.058 1.875l-1.057 1.13c-.71.746-1.06 1.31-1.06 1.681 0 .505.467 1.162 1.41 1.977.94.818 1.884 1.218 2.828 1.218h.71c1.294-.996 2.234-2.497 2.827-4.51.464-1.004.702-2.004.702-3.004v-1.488zm-36.045-3.758c.468 0 .706-.254.706-.75 1.416-.504 3.533-.755 6.365-.755h.705c3.767 0 6.36 1.005 7.776 3.005h.71c0 .375-.12.597-.355.658-.238.064-.35.225-.35.471v.376c0 .504-.469 1.004-1.416 1.504-.944.504-1.416 1.004-1.416 1.5l-.35-.746-.356-.754H35.5c-.472 0-1.06.129-1.767.379l-1.056.375h-.706c-.472 0-.71-.25-.71-.754v-.75c-.472-1.005-.944-1.75-1.416-2.259-.472 0-1-.125-1.589-.375l-.528-.371c-.472 0-.706-.125-.706-.383 0-.25-.238-.371-.706-.371z" fill="#00082d"/>
  <path d="M40.965 12.08h2.916c1.456 0 2.428.483 2.916 1.46l-.73 2.185h5.106c3.52.976 5.219 2.182 5.098 3.638l-.726.734-10.93-1.456c-1.823 3.4-4.981 5.828-9.474 7.284 3.033-3.884 4.489-6.312 4.368-7.284-4.368.972-6.554 1.698-6.554 2.182-.488 3.525-.976 5.223-1.46 5.102h-1.456c-.488 0-1.218-1.456-2.186-4.368-1.823.972-3.283 1.456-4.372 1.456h-1.456c-1.456-.972-2.492-1.94-3.101-2.916l.911-.734 2.186.734 5.828-1.456V13.543c2.428 2.428 3.642 3.888 3.642 4.368l.73-1.452h.73v1.452c5.828-.964 8.744-1.936 8.744-2.912v-1.456l-.73-.734zM26.937 23.734c.972 1.948 1.517 3.162 1.638 3.646v2.186c7.288-1.335 12.632-2.069 16.036-2.186h4.372C54.327 27.744 57 29.692 57 33.21c-1.944 20.408-5.102 30.608-9.478 30.608-3.033 0-5.95-2.674-8.74-8.018h.726a23.767 23.767 0 005.828 2.186c3.037 0 5.465-7.534 7.288-22.594 0-4.009-1.702-5.949-5.106-5.828h-2.186c-6.8 0-10.2.484-10.2 1.456v.73c1.456.488 2.186 1.456 2.186 2.92l1.46-1.464v-.726l-.73-.73.73-.73h2.186c2.307.484 3.525.976 3.646 1.46v.726c-2.311 1.823-4.74 3.283-7.288 4.376v.726l5.832-.726c.968 0 1.94.726 2.912 2.182 0 .492-3.158.976-9.474 1.46v2.92c0 .484 2.186 1.218 6.558 2.186 1.94.492 3.642 1.706 5.102 3.646v.726l-.734.544h-2.186c-.488 0-3.4-1.153-8.744-3.46v5.102c0 4.009-.488 5.957-1.456 5.832h-.73c-1.456-.968-2.186-2.428-2.186-4.372l.73-7.284v-.734c-4.376 3.888-7.534 5.832-9.474 5.832h-3.646v-.916c3.521-.363 6.925-2.972 10.204-7.832l-6.558 2.19c-.976-1.335-1.456-2.553-1.456-3.646v-.734l1.456.734c1.94 0 5.098-1.456 9.474-4.372v-2.19c0-1.94-.246-2.912-.73-2.912-3.037.484-6.925 2.432-11.66 5.828-.492 0-1.032-1.21-1.641-3.638 2.427-.972 5.106-4.622 8.021-10.938zm0 10.938h.912l.726 1.456 2.916-1.456v.722c-1.456 3.408-2.977 5.106-4.554 5.106l-.544-2.186v-1.456z" fill="#870000"/>
  <path d="M54.573 126.113c0-.872-.706-1.876-2.118-3.01h-.883c0-.495-.177-.745-.528-.745-.472-.5-.71-2.259-.71-5.263 0-.5.117-1.009.35-1.505.239-.5.356-1.008.356-1.504 0-.5-.238-1.255-.71-2.259-.944-4.009-3.771-6.01-8.482-6.01h-.71c-2.355.497-4.009 1.005-4.948 1.505l-2.122 1.505c-1.883 1.875-2.827 3.633-2.827 5.263 0 1.004 1.178 2.758 3.537 5.259.94 1.004 2.121 2.005 3.529 3.009l.355.37c.234.255.706.505 1.411.76l1.061.37 2.122 1.504 6.364 2.255c1.295.5 2.234.75 2.827.75h.706c.948-.496 1.42-1.25 1.42-2.254zM51.044 135.885c-.948-1.504-1.654-2.315-2.126-2.44h-1.057c-.705 0-1.177-.093-1.411-.282-.238-.186-.355-.408-.355-.658 0-.25-.238-.62-.706-1.13-.94-.995-2.117-1.503-3.529-1.503-1.887 0-3.303.754-4.243 2.254v.375c0 .25-.472.565-1.411.94-.944 1.504-1.412 2.573-1.412 3.194 0 .5.234 1.254.706 2.263.827 1.004 2.004 1.75 3.533 2.246h.706c.472 0 1.266-.12 2.387-.37 1.118-.25 1.969-.372 2.561-.372h2.118c0 .496.234 1.004.706 1.5.467.5.94.75 1.411.75.472 0 .944-.253 1.416-.75l1.06-1.129c.59-.754.888-1.375.888-1.875-.008-.5-.424-1.505-1.242-3.013zM121.725 68.995c1.415-1 2.117-2.254 2.117-3.75v-2.263c-.944-1.876-2.117-3.376-3.533-4.51h-1.416c-.943 0-2.355.94-4.238 2.816-2.243 3.138-3.42 5.703-3.534 7.707V73.512c-.471 1.505-1.653 2.755-3.533 3.751l-2.827 1.504.71-3.008c.94-4.51 1.412-8.768 1.412-12.777v-3.759c3.299-1.505 5.892-3.005 7.78-4.505 2.35-1.876 3.944-4.384 4.77-7.514V45.32c0-.25.263-.625.795-1.12.529-.5 1.029-.755 1.505-.755.468-1.008.705-1.754.705-2.258 0-.5-.471-1.505-1.415-3.005l-.706-.94c-.472-.375-.766-.815-.883-1.315-.351-.496-.767-1.254-1.238-2.258-.472-1.005-.944-1.755-1.412-2.259l-1.06-.37c-.71-.25-1.3-.376-1.767-.376-1.412 0-2.827.746-4.24 2.25-1.415 2.01-2.12 3.763-2.12 5.264 0 1.004.233 1.758.705 2.254l.355 1.13.351 1.12v2.255l.71.759c.468.496.706 1.004.706 1.504l-.355.371-.351.375c.468.504.944 1.125 1.416 1.884l.528 1.12v2.255c-.351 1.38-1.94 3.13-4.771 5.264v-.755c0-.496-.234-.746-.702-.746-.944-5.513-3.533-11.272-7.776-17.29l-.71-.75c0-.5.234-.754.71-.754h.702c1.415-.5 2.597-1.505 3.537-3.009.94-.996 1.65-2.259 2.117-3.763 0-2.371-.472-4.38-1.411-6.01-.944-2-1.888-3.004-2.828-3.004-.947-.5-1.887-.758-2.827-.758h-1.411l-.71.758h-.706l-.702-.375-.706-.38h-.71c-.943 0-1.649.76-2.12 2.26l2.12 2.258c.472.5 1.267 1.125 2.388 1.88 1.117.75 1.944 1.5 2.472 2.254.529.75 1.029 1.625 1.5 2.626 0 1.004-.471 2.448-1.41 4.323 0 .504-.295.81-.884.94-.355-.871-1.476-2.126-3.356-3.755l-1.42-1.513c0-.5.118-.87.356-1.12l.35-.384c0-.996-.705-2.25-2.12-3.75l-1.586-.759c-.355 0-.532-.496-.532-1.5l-1.061-1.126c-.238-.25-.589-.375-1.06-.375-.473-1.004-.945-1.75-1.412-2.258-1.42-.875-3.304-1.371-5.655-1.505h-2.827c0 .505-.238.755-.706.755-.948 0-1.887.254-2.831.75-.944 1.004-1.416 1.758-1.416 2.258s.71 1.505 2.118 3.005v1.504c1.298 1.384 2.71 2.384 4.246 3.005l.351-.37c.234-.25.59-.376 1.061-.376.468 0 1.174.254 2.117.746l2.118 2.259c.472.504 1.06.758 1.766.758h1.061c4.239 0 7.07.746 8.482 2.25.472 0 .823.376 1.06 1.13.235.754.529 1.129.884 1.129 3.888 5.513 6.538 10.773 7.95 15.782.939 3.634 1.415 5.828 1.415 6.57v1.694c0 1.008-.238 2.758-.706 5.263-2.827 11.906-7.308 21.17-13.434 27.809-.944 1.004-1.416 1.754-1.416 2.25l.71.754h.355c.238 0 .589-.37 1.056-1.125.472-.75.944-1.13 1.42-1.13 4.239-4.508 7.3-9.263 9.188-14.277 0-1.504.467-2.508 1.411-3.008h1.416c2.94 0 5.3-.25 7.066-.755l.706-.375c.472-.25.94-.37 1.415-.37h2.122a15.4 15.4 0 002.827-1.505c.94-.5 1.416-2.255 1.416-5.263v-2.251z" fill="#00082d"/>
  <path d="M98.397 75.759c0-2-1.416-3.005-4.239-3.005h-2.125c-.944 0-1.944-.25-3.001-.75-1.303-.504-3.36-.758-6.191-.758h-1.412c-1.411 0-2.593.25-3.529.758-2.359 1.504-3.775 2.759-4.247 3.755l-.705.754c0 .5.238 1.254.705 2.254l1.416.755.71.75-.355 1.13c-.238.753-.355 1.382-.355 1.883l.71.746v.754c.94.375 1.645.88 2.121 1.504h2.118c1.294 0 2.472-.314 3.529-.935a3.71 3.71 0 001.06-1.32c.238-.5.59-.745 1.061-.745h1.416a8.765 8.765 0 002.827-3.763v-1.509h.706c2.36-.87 4.005-1.379 4.949-1.504h.71l.879.75.532.758c.472-1.008.71-1.758.71-2.262zM95.57 44.945c.472.376.883.634 1.238.759l-.529-.759c-2.355-5.509-5.658-8.263-9.897-8.263h-.706c-4.71.375-7.542 1.625-8.481 3.758-.472 1.005-.71 1.755-.71 2.255 0 1.508.472 2.763 1.415 3.759a13.039 13.039 0 003.53 3.759l1.411.75c.94 0 1.888-.5 2.831-1.504.94-.5 1.88-1.5 2.828-3.005l.532-2.25H94.86z" fill="#00082d"/>
  <path d="M101.93 58.477c-.944-3.126-2.36-5.135-4.239-6.01-1.766-2.008-4.832-3.012-9.187-3.012-1.416 0-2.828.254-4.243.758-1.767 1.004-2.945 2.258-3.533 3.759-.472 1.008-.706 1.754-.706 2.254 0 .504.113 1.004.35 1.5l.352.755v1.508c0 2.384 1.65 4.134 4.948 5.263.94.5 1.65.747 2.118.747 1.766 0 3.888-.747 6.364-2.255l1.057-.754c.705-.5 1.294-.904 1.766-1.218.472-.31 1.178-.476 2.118-.476 1.415 0 3.299.823 5.654 2.448-.464-.504-1.403-2.263-2.82-5.267zM95.57 155.422c-1.412-2-2.828-3.005-4.24-3.005h-.709c-.468 0-1.057.254-1.763.754-.71.5-1.302 1-1.766 1.5h-1.416c-.472 0-1.06.125-1.766.375l-1.065.376c-.472 0-.944.504-1.412 1.512-.471 1.004-.705 1.625-.705 1.875v2.63c.472 1.5 1.177 2.25 2.117 2.25l.706.755c.944 0 1.653-.25 2.121-.754 1.416-.997 2.356-1.75 2.828-2.251v-1.504c.822-1.005 1.766-1.505 2.827-1.505 1.883 0 3.295-.496 4.239-1.5v-.758c.471.504.883.758 1.238.758 1.415.871 2.412 1.375 3 1.5.472 0 .71-.314.71-.943 1.412-.372 2.122-1.053 2.122-2.065l-.71-.75c-.944-1-2.122-1.5-3.53-1.5-.475 0-1.003.25-1.592.745l-.529.754z" fill="#00082d"/>
  <path d="M93.452 159.935c-.948 0-1.891.5-2.831 1.504l-2.117 2.25-.355.944-.351 1.315h-1.412l-.706.754-.705.746c-.476.505-.944 1.763-1.42 3.763-.472.496-.706.997-.706 1.5h.706c0 1.376.472 2.376 1.42 3.005.94.5 1.645.755 2.117.755a3.991 3.991 0 001.944-2.259v-3h.88v.745c1.879-.5 2.826-1.5 2.826-3.004l-.35-.75-.355-.755c0-.5.238-.996.705-1.5 0-.375.355-.847 1.061-1.412.706-.564 1.06-1.092 1.06-1.597.473 0 .707-.25.707-.754 0-1.5-.71-2.25-2.118-2.25zM105.467 175.72c0-.5-.121-.879-.355-1.129-.238-.25-.35-.621-.35-1.13v-2.245c0-.505-.473-1.755-1.412-3.764l-.706-.746-.71-.754-.706-.75c-.472 0-.823-.121-1.057-.38-.237-.25-.471-.62-.705-1.128-.238-.5-.593-.997-1.061-1.5h-.71l-.883-.75-.529-1.505-.71 1.504v.75l.356.754.354.75c.351 1.388.529 2.634.529 3.76l-.529 1.504c-.471 1.504-.71 2.508-.71 3.005v.758c.473 0 1.061.375 1.767 1.125.71.75 1.065 1.38 1.065 1.88s-.121.875-.35 1.129c-.239.25-.356.62-.356 1.13v.75c0 1.504.94 2.435 2.827 2.818h1.412c1.766-.875 2.94-2.323 3.537-4.323v-1.513zM106.173 98.687c0-.25-.238-.629-.706-1.13-.472-.5-.83-.753-1.06-.753-.239 0-.473.254-.707.754l-.35.75h-.706l-.71.383-.706.371v1.505l-.706.758c0 .37-.238.718-.71 1.028-.471.315-.822.597-1.056.847-.238.246-.589.371-1.06.371 3.887-.5 6.008-.746 6.363-.746.351-.5.82-1.254 1.416-2.258.468-.496.706-1.005.706-1.505v-.375zM113.243 162.943l-.706-.754c-.472-.5-.944-.75-1.416-.75-.471-1.004-.943-1.754-1.415-2.259-.472-.5-.948-.75-1.416-.75l-.706.75h-2.827c-.827 0-1.738-.125-2.738-.37-1.005-.25-1.739-.376-2.21-.376-1.412.5-2.118 1.009-2.118 1.505l.71.375c.468.25.823.504 1.06.758.235.25.473.75.706 1.504l.351 1.122 1.412 1.508H106.527c.239 0 .473.125.71.375.234.25.351.63.351 1.13.94 1.004 1.884 1.5 2.828 1.5 2.234 0 3.412-1.005 3.533-3.005-.004-.508-.238-1.258-.706-2.263zM90.621 147.912c-.944-1-1.884-1.505-2.827-1.505h-2.118c0 .505-.355 1.005-1.06 1.505-.706.504-1.061 1.004-1.061 1.5 0 .88.71 1.63 2.121 2.259h1.057c.234 0 .468-.121.706-.375l.706-.755c.234-.25.355-.62.355-1.129 1.415-.496 2.121-.996 2.121-1.5z" fill="#00082d"/>
  <path d="M85.676 120.103l-1.415-.75h-1.416c-.472.5-1.178.75-2.117.75-.944 0-1.65.254-2.122.754l-1.06.75-1.061.755h-2.3c-.822 0-1.237-.5-1.237-1.505 0-.5.117-1.004.355-1.504.234-.496.35-1 .35-1.508 0-.876-.237-1.372-.705-1.505l-1.416-1.504c-.472 0-1.178.504-2.117 1.504l-1.412 1.505c-.944 1.508-1.472 3.258-1.593 5.259v1.504l-.532-.75h-.702c-.476 0-.71-.25-.71-.754-.472 0-.706-.375-.706-1.13 0-.75.238-1.37.706-1.875v-.75c0-2.38-.472-4.13-1.412-5.26l-4.238-1.504c-1.888.5-3.066 2-3.538 4.51l-.705 1.504-.706 1.504v.754c0 1.005.706 2.25 2.121 3.755 1.884 1.384 3.533 2.13 4.949 2.259h3.529l.71.754 1.234-.754c.472-.5.883-.754 1.238-.754h.355l.706.754c1.415 1.004 2.827 1.5 4.239 1.5.826 0 2.004-.75 3.533-2.254l1.415-1.505c2.352-1.504 3.767-2.5 4.24-3.004h1.41c1.425-.505 2.13-1 2.13-1.505zm0 4.51c0-1-.472-1.505-1.415-1.505v.754c-1.416 1.008-3.775 2.759-7.066 5.263-3.775 2.005-6.837 3.005-9.188 3.005h-1.593v-.754c-.35-.996-1.004-1.504-1.944-1.504-.472 0-1.178.254-2.121.754-1.412.5-2.118 1.254-2.118 2.25 0 .383.113.726.351 1.037.234.314.468.468.706.468.234 0 .35.254.35.754l1.416 2.258c.468 1.005 1.593 1.755 3.356 2.255h2.299c2.944 0 5.771-1.504 8.486-4.51 2.94-1.875 5.061-4.133 6.356-6.767 1.42-1.63 2.125-2.883 2.125-3.759zm-14.14-15.782c0-1.005-.35-1.755-1.06-2.259-.706-.5-1.295-.746-1.767-.746-1.767.496-2.944 1.254-3.533 2.25v1.319c-.476 1.004-.71 1.82-.71 2.44 0 1.505.472 2.755 1.412 3.76l2.125.75c.94 0 1.412-.255 1.412-.75l-.706-.755v-.75c0-.5.238-1.254.706-2.259 0-.5.35-1.032 1.06-1.597.71-.556 1.061-1.032 1.061-1.403zm9.897 8.268c-.943-.5-1.65-1.255-2.117-2.259-.472-.996-.71-2.004-.71-3.005v-2.44c0-.37-.117-.685-.35-.94-.239-.25-.59-.379-1.057-.379h-1.416c-.472.505-1.182 1.509-2.125 3.013v3.009c.354 1.004.826 1.504 1.415 1.504.944 1.876 2.356 2.88 4.243 3.005h2.117v.754l.706-1.508-.35-.557zm1.412-17.287c-1.295-1.004-2.234-1.508-2.823-1.508-2.356 0-4.005 1.254-4.953 3.759v2.259c0 1.504.238 2.25.71 2.25l1.416-.746c1.411-1.504 2.589-2.259 3.529-2.259h1.411l1.412-1.504c.004-.496-.23-1.242-.702-2.25zm4.949 7.514c-.472-1.008-1.178-1.754-2.118-2.258h-2.125l-2.118 3.008c-.471.88-.705 1.88-.705 3.013 0 2 .238 3.5.705 4.51.823 1.375 1.767 2.129 2.828 2.25l1.415-.75c0-.5-.238-1.13-.705-1.876l-.71-1.13c0-1.504.472-2.508 1.415-3.004l.351-.754.355-.94c0-.37.234-.814.706-1.319zm3.533 18.787c0-.872-.238-1.876-.71-3.01l-.706-.745c-.472-.5-.88-.754-1.238-.754H88.5c-1.416 1.5-2.36 3.758-2.828 6.763 0 2.013-.472 4.013-1.415 6.014-.476.504-.944 1.129-1.416 1.883-.472.75-.944 1.38-1.412 1.876-.471.504-.705 1.504-.705 3.004v.758c.471 2 1.415 3.01 2.827 3.01l2.831-1.505c1.767-1.008 2.94-2.263 3.533-3.76.468-.5.94-2.758 1.416-6.767V126.113zm3.533-16.718c-.468-1.38-1.178-2.065-2.122-2.065-1.411.5-2.827 1.505-4.238 3.005-.948 2.008-1.416 3.513-1.416 4.509 0 .504.234 1.004.706 1.504.472.88.883 1.384 1.242 1.505.464 0 .996-.25 1.585-.75 2.944-2.509 4.36-4.756 4.243-6.764zm.71 11.462l-.706-.754h.706-.706c2.827-.5 4.707-1.246 5.654-2.258.94-1.372 1.412-3.122 1.412-5.256-.472-1.504-1.412-2.258-2.827-2.258H98.4a4.754 4.754 0 00-2.122 2.258v2.255c-.471 1.004-1.653 2.009-3.537 3.005-1.411.504-2.121 1.012-2.121 1.508 0 .5.234.75.71.75h2.831l-.706.754h.706v.75c2.234 2.01 4.828 3.005 7.772 3.005h2.827v.755h5.655c-.944.879-1.416 1.875-1.416 3.004v3.009l-.706.754c0 .5-.944.75-2.827.75-.83 0-1.767-.25-2.827-.75l-.355-.754-.355-.75c-1.884-2.509-3.065-3.76-3.53-3.76-.943-.874-1.887-1.378-2.83-1.503l-.706.75c0 1.508.472 2.254 1.415 2.254 0 .504.174 1.255.529 2.259 0 .5.528 1.754 1.593 3.755.468 2.008 1.412 3.262 2.823 3.759.476 0 1.416.254 2.831.758 2.235 1.004 4.122 1.504 5.655 1.504.468 0 .911-.129 1.323-.383.415-.25.883-.621 1.415-1.121.529-.5 1.029-.758 1.5-.758l.71-.376.706-.375c1.884-1.004 2.828-2.315 2.828-3.948 0-.375-.351-.94-1.057-1.694-.706-.75-1.065-1.25-1.065-1.504s-.113-1-.35-2.25c-.239-1.255-.356-2.13-.356-2.63-.476-.5-1.177-.755-2.117-.755h-1.593l.887-.75c.94-.496 1.412-1 1.412-1.5 0-1.004-.472-2.005-1.412-3.009-.472-.496-1.178-.754-2.121-.754h-.706l-1.416 1.504v.754h.706l-1.412 1.505c-.471 0-.822.125-1.06.37-.238.255-.59.376-1.061.376.468 0 .706-.496.706-1.5 0-2.005-.706-3.005-2.122-3.005l-.705.371-.706.38c-1.416 1.003-3.36 1.503-5.832 1.503-.355-.5-.766-.754-1.238-.754v.75zm10.603 20.287c-.476 0-.944.258-1.416.758s-.944.75-1.411.75c-1.888 0-3.3-.75-4.243-2.25-.94-1.504-1.706-3.82-2.295-6.957a1.85 1.85 0 01-.529-1.315v-1.5c-.471-1.004-1.177-1.505-2.117-1.505-.472 0-.944.5-1.42 1.505-.471.5-.705 1.436-.705 2.815 0 1.004.117 2.287.355 3.852.233 1.568.35 2.855.35 3.847.472 2.384.71 3.888.71 4.51l2.118 2.262 2.121 2.254c.94.5 1.88.75 2.827.75.94 0 2.356-.5 4.24-1.504 2.355-1.5 3.532-3.255 3.532-5.259.004-2.009-.706-3.013-2.117-3.013zm-10.603-21.04h-.706l.706.753zm13.426-6.764c-1.412-.997-2.355-1.505-2.823-1.505-1.303 0-2.009.504-2.122 1.505 0 .504-.12.879-.355 1.125-.238.258-.35.504-.35.758s-.238.375-.706.375c-.472 0-.827.125-1.061.375l-.355.375c0 .505.238.755.706.755.472.37 1.416.629 2.827.75 1.416 0 2.59-.25 3.533-.75.94-1.009 1.416-1.755 1.416-2.259 0-.5-.238-1-.71-1.504z" fill="#e07f00"/>
  <path d="M129.497 98.304c-.472-2.5-1.888-4.25-4.243-5.255h-2.118c-1.415 0-2.654.5-3.71 1.504l-.351.75a6.237 6.237 0 00-.182 1.505l-.705.754h-.706l-1.416 3.005c.94-1.505 1.416-2.755 1.416-3.76 0-.5-.351-1.245-1.061-2.254-.706-1.004-1.537-1.504-2.476-1.504-.944 0-1.71.5-2.3 1.504-.822 0-1.233.25-1.233.75h.705v.755c-1.415 3.13-3.065 5.388-4.948 6.767-1.303 1.004-2.477 1.505-3.533 1.505 0 .5.234.746.706.746.467 0 .94-.117 1.411-.375.472-.25.823-.371 1.06-.371.235 0 .59.25 1.062.746l.71.758c1.883 1.004 4.71 1.504 8.481 1.504h1.416c.468 0 .911-.25 1.323-.758.415-.5.911-.746 1.504-.746l.706-.758h1.415c2.352-.496 3.767-.996 4.24-1.505 1.41-1.129 2.359-2.883 2.827-5.267zM125.963 110.335c-1.415-1.88-2.593-2.88-3.533-3.005-.471 0-1.064.375-1.766 1.126l-1.238.94h-.884c-.237 0-.588-.057-1.06-.19l-.706-.371c-.472 0-1.178.25-2.117.754-.944.496-1.416 1.004-1.416 1.504l1.416 1.505 1.411 1.504h.71l1.412 1.504h2.827c1.415 0 2.59-.25 3.533-.754 1.416-1.504 2.355-2.5 2.823-3.005z" fill="#00082d"/>
</svg>