<svg xmlns="http://www.w3.org/2000/svg" viewBox="0 0 139.764 200">
  <path d="M32.043 174.95c0-.512-1.032-1.032-3.093-1.545h-6.179c-2.581 1.033-4.126 2.32-4.638 3.864l-.383 1.162c-.258.766-.387 1.42-.387 1.932v.774c.512 1.932 2.315 3.472 5.412 4.634.508 0 1.545-.512 3.09-1.545.512-.516 2.057-2.83 4.638-6.957l.774-.766c.508-.65.766-1.162.766-1.553zM43.441 154.861c0-2.061-1.226-3.09-3.67-3.09-3.61.517-5.413 1.678-5.413 3.481 0 1.799 1.029 2.702 3.09 2.702h.774c1.549 0 2.577-.254 3.094-.774 1.415-.512 2.125-1.29 2.125-2.319zM45.18 165.682h-.77c-4.635 0-7.728 1.807-9.273 5.408v1.545c0 1.932 1.028 2.96 3.09 3.09 1.028 0 1.802-.775 2.322-2.32.509 0 .77-.254.77-.77v-1.545c0-1.032.706-2.577 2.126-4.634z" fill="#560042"/>
  <path d="M21.38 17.318h.718c3.815.84 5.727 1.795 5.727 2.864l-.714 9.316h2.867c1.432 0 2.15.48 2.15 1.44 0 .476-1.968 1.908-5.912 4.296v4.295l3.045-3.582v.718l-3.045 8.6v.717h.895c7.163 0 10.748-1.432 10.748-4.295.952-1.795 1.432-3.465 1.432-5.022l-.714-.718c2.864-1.79 7.159-2.984 12.894-3.577 4.3.476 6.45 2.626 6.45 6.445v2.15h-.719v.722h.718l5.727-.722c1.795.355 3.703 1.552 5.735 3.585v.714l-.718.718-11.462-1.432-2.867 12.902 1.431.714h.718v-1.613h.718c2.388 4.896 3.582 7.824 3.582 8.776v.718l-1.432.722c-.956 0-3.106-1.678-6.45-5.017-1.43 3.819-2.685 5.727-3.758 5.727-4.3-2.263-6.393-4.417-6.272-6.45l3.582 1.432c.956 0 1.851-1.185 2.69-3.577-6.09-2.872-10.333-4.303-12.72-4.303l-3.586.718-.714-1.432v-.718l2.15-4.295-3.582.717c-2.387-.838-3.585-1.794-3.585-2.871h-.896v1.44l.896 16.475c-.48 1.912-1.198 2.864-2.15 2.864-.956 0-1.912-1.908-2.863-5.727V50.28L17.076 55.3h-.718c-1.431-.956-2.15-2.392-2.15-4.296 4.776-6.215 7.406-11.224 7.886-15.051l-2.15.717h-2.15c-2.988-.475-4.42-1.19-4.3-2.15 5.728-1.314 9.076-2.508 10.031-3.577 0-8.602-.718-12.902-2.15-12.902v-.722zm19.347 0h.536c.476 0 1.255 1.194 2.327 3.586v1.432l-.714 3.581h.714c5.256-1.908 8.833-2.864 10.749-2.864h2.15l.717 1.432v.714c0 .839-4.541 2.509-13.616 5.017l.718-1.431c-4.295 2.984-6.929 4.416-7.88 4.295l-1.432-3.582c3.82-5.852 5.73-9.909 5.73-12.18zM37.859 51.71l2.864.718 2.863-7.167c-3.815.48-5.727 2.626-5.727 6.449zm4.3-13.612v1.432l-1.432 4.3c3.34 0 5.013-1.67 5.013-5.018l-.714-2.15h.714c3.343.476 5.017 1.432 5.017 2.864l-.718 2.867c1.908 0 2.864-.237 2.864-.713v-4.304c0-1.432-.48-2.383-1.432-2.863h-.718c-.952 0-3.82 1.198-8.594 3.585zm1.431 15.044l7.167 2.154 2.15-10.749h-3.759z" fill="#870000"/>
  <path d="M59.864 123.18h-1.549c-.516 0-.903.134-1.157.392l-.387.383H56c-1.545 0-2.32.65-2.32 1.932 0 1.286.775 1.936 2.32 1.936 1.544 0 2.318-.52 2.318-1.553 0-.895-.516-1.666-1.544-2.315.512 0 1.028.129 1.544.383l.775.387c.9 0 1.415-.258 1.544-.77zM66.817 117.768c0-.9-1.286-2.186-3.864-3.86-1.032 0-1.544-.254-1.544-.774v-.77c0-1.029-.775-1.545-2.32-1.545-1.032 0-1.544.512-1.544 1.545 0 2.06.512 3.093 1.545 3.093.512 0 1.028-.254 1.544-.774l.775-1.545c.512.52 1.411 1.424 2.702 2.706 1.287 1.287 2.186 2.194 2.702 2.706.512 0 .77-.129.77-.383v-.39h-.766zM69.136 116.998v-.775c-.516 0-.839-.254-.968-.77l-.58-.774c-.517-.513-.77-1.025-.77-1.545l-1.545-.77v-1.545c0-1.416-.517-2.19-1.545-2.32-1.033 0-1.545.775-1.545 2.32 0 1.032.512 1.545 1.545 1.545h1.545l1.544 2.315c0 1.032.254 1.807.77 2.319 0 .383.517.65 1.55.77zM68.168 110.819c0-.512-.193-1.093-.58-1.738 0 .512.096 1.056.29 1.637.198.58.29 1.133.29 1.646.513 1.544 1.093 2.835 1.739 3.863l.774.775v-.775c-.133-1.548-.968-3.351-2.513-5.408zM74.545 107.726l-.77-.77c-.517-.513-1.033-.775-1.545-.775h-.775c-.516 0-.77.262-.77.774-.516.512-.774 1.033-.774 1.545 0 .387.258.903.774 1.545h.77v3.863c0 1.033.259 1.545.775 1.545l.77.77v-6.179h.77V108.5zM78.021 107.338c-.258-.258-.903-.387-1.932-.387-.516 0-.77.258-.77.77-.516 0-.774.392-.774 1.162 0 .774.254 1.158.774 1.158v.774l-.774 1.545c-.516 1.544-.77 2.58-.77 3.093 0 .512.254.77.77.77v.775l.774-.775v-.77c0-.512.13-1.42.387-2.706l.383-1.932h1.545l.775-.774v-1.158c0-.766-.134-1.283-.388-1.545z" fill="#560042"/>
  <path d="M76.09 114.679c0 .52.193.774.58.774.512 0 1.093-.254 1.743-.774 0-.513.125-1.154.383-1.932l.39-1.162-1.548 1.545z" fill="#560042"/>
  <path d="M112.408 110.045c0-2.44-1.287-5.018-3.864-7.724-1.548-.903-3.61-1.674-6.183-2.323h-3.864c-3.222 0-6.053.262-8.497.778-.516.896-1.033 1.416-1.545 1.545v-2.323c0-3.214-1.032-5.275-3.093-6.179-.9-.512-2.96-.774-6.18-.774-.515 0-1.423.129-2.705.383-1.291.262-2.194.391-2.707.391-4.634 1.545-7.985 4.122-10.046 7.724l-.77.774c-1.033-.512-1.803-.774-2.32-.774-1.42-.383-3.222-.642-5.412-.767-3.606 0-6.437.513-8.498 1.545-3.09 2.057-4.634 4.634-4.634 7.724 0 .52.254 1.544.77 3.089.9 2.065 2.444 3.864 4.634 5.412l.77.775c-.511 0-1.028.254-1.544.766-3.606 1.033-5.925 2.577-6.953 4.634-1.037 2.448-1.549 4.771-1.549 6.957 0 1.416.254 2.449.77 3.09l1.55 1.544c1.544 1.553 2.83 2.32 3.863 2.32.512 0 2.831.262 6.957.778l.964.383c.387.254.835.383 1.351.383 1.029 0 2.32-.254 3.864-.766l.77-.391.775-.387c0 1.032.774 2.065 2.319 3.089 2.573 2.448 5.916 3.739 10.042 3.864 1.029 0 1.8-.254 2.32-.775 6.182-1.024 11.074-3.86 14.684-8.502 1.545-1.544 2.315-2.573 2.315-3.089.512-2.057.774-3.347.774-3.86 0-1.032-.258-2.835-.774-5.412-.512 0-.77-.254-.77-.775 1.928.517 3.476.775 4.634.775 1.545 0 3.8-.512 6.763-1.545 2.061 0 3.67-.512 4.828-1.545 1.549-1.032 3.094-2.319 4.638-3.863 1.037-2.05 1.553-4.372 1.553-6.95zm-27.82-5.409l-1.158.774c-.775.513-1.162 1.033-1.162 1.545-2.06 1.932-3.09 4.251-3.09 6.957 0 1.545.513 2.578 1.546 3.09v.77h-.77c-6.704 1.04-12.366 3.352-17 6.957 0 .52-.259.775-.775.775l-.77-.775c-1.424 0-2.194.775-2.32 2.32v.774h.775v.77l-.774.774v3.09c-.517.512-.775.835-.775.964v.387h-3.089c-.512 0-1.416.161-2.702.488-1.287.323-2.19.476-2.702.476h-.775c-2.06 0-3.605-.512-4.634-1.545-1.424-.512-2.194-1.803-2.319-3.86v-.774c0-1.932 1.028-3.73 3.09-5.408 0-.513.77-1.025 2.318-1.545 1.545-.512 2.578-.77 3.094-.77h1.355l-.58.77c.382 1.545 1.157 2.319 2.314 2.319 1.029 0 1.8-.254 2.32-.774l.387-.77.383-.775h2.319l2.319.774h.77l-.77-1.544c-.908-.513-1.678-.775-2.32-.775-.515 0-.903.13-1.157.383l-.387.392h-.774c-.517 0-.77-.13-.77-.392v-1.149.766h.77c.512 0 1.028-.512 1.544-1.545v-.383c0-.258.13-.39.388-.39.254 0 .512.132.774.39.254.254.645.513 1.161.767l.775.39c.512 0 1.024.255 1.545.767l.77.775h1.545c-.517-1.033-1.033-1.8-1.545-2.32-.516-.512-1.803-.774-3.864-.774-.516 0-.907-.12-1.161-.387-.259-.254-.388-.641-.388-1.158-.516-.512-1.032-.77-1.544-.77-1.545 0-2.315.77-2.315 2.315 0 .52.254 1.04.77 1.553-.512-.512-1.678-1.162-3.477-1.936-1.802-.766-2.96-1.674-3.476-2.702-1.545-1.545-2.315-3.09-2.315-4.634 0-.9.77-2.186 2.315-3.864a19.836 19.836 0 017.731-1.545h3.094c1.932.516 3.73 1.545 5.408 3.09l2.32 1.355h.77c0-.387.193-.581.58-.581v-.774c0-.513-.225-1.154-.673-1.932-.452-.767-.678-1.416-.678-1.928 0-1.033.452-2.061 1.351-3.09 3.219-3.218 7.147-4.763 11.785-4.642h3.86c.903 1.033 1.42 2.323 1.545 3.864v.778c-.137 1.537-.395 2.824-.783 3.852zm3.089 23.953c0 2.577-1.033 4.634-3.09 6.179-1.544 1.544-3.605 2.835-6.178 3.864-3.094 1.032-5.671 1.544-7.728 1.544-4.126 0-6.7-1.282-7.728-3.864-.516-1.024-.774-1.859-.774-2.508 0-2.44 1.029-4.695 3.094-6.76 1.028-.895 3.089-2.186 6.182-3.863 2.574-1.545 4.893-2.315 6.958-2.315h1.544c.512.512 1.158.899 1.928 1.153.774.262 1.42.391 1.932.391 1.42 1.029 2.448 1.799 3.093 2.315.513 1.033.767 2.32.767 3.864zm19.319-18.544c0 2.577-1.291 4.634-3.864 6.182-.516.517-2.832 1.029-6.957 1.545-1.033.52-2.578.774-4.635.774-2.06 0-3.605-.254-4.638-.774l-.77-.77c-.516 0-1.157-.254-1.932-.775-.77-.512-1.42-1.024-1.932-1.544v-1.545c0-1.545.775-3.09 2.32-4.634 2.443-2.577 6.017-3.864 10.723-3.864 4.7 0 7.82.682 9.365 2.029 1.55 1.343 2.32 2.476 2.32 3.376z" fill="#560042"/>
  <path d="M73 155.635c-1.545-1.032-3.158-1.544-4.832-1.544h-2.125c-1.029 0-1.545-.254-1.545-.775l.775-.77c-1.033-1.416-2.836-2.19-5.409-2.32-1.032 0-2.319.521-3.864 1.546-.516 0-1.032.262-1.544.774l-.775.77c-1.032 2.065-1.807 3.09-2.315 3.09h-1.544c-7.728 1.936-14.685 4.77-20.868 8.498-3.09 1.032-4.634 2.323-4.634 3.863s.77 2.323 2.315 2.323c.903 0 2.19-.512 3.864-1.544 7.207-3.61 13.136-6.187 17.77-7.732 1.032-.512 2.06-.766 3.097-.766l.581.766c.512 3.227 1.605 4.771 3.279 4.642.512 0 1.545-.516 3.093-1.552l4.639-5.405c.512-.903.899-1.383 1.161-1.448.254-.068.641-.222 1.158-.488a3.454 3.454 0 011.544-.383c.512 0 2.061-.512 4.638-1.545zM62.18 174.95h3.863c.512 0 2.835-.512 6.957-1.545 3.602-1.544 5.925-2.315 6.957-2.315 2.057 0 3.09-.512 3.09-1.544 0-.513-.13-.904-.388-1.162l-.387-.383 1.545-2.32a159.894 159.894 0 012.32-3.867l.77-2.315.77.77h1.548c.513.52 3.606 1.287 9.273 2.32 5.662 1.032 9.53 2.577 11.59 4.634l.775 1.161c.513.77.9 1.287 1.162 1.545.254.254.641.383 1.157.383 1.029 0 2.025-.512 2.997-1.545.964-1.024 1.448-1.803 1.448-2.315a4.34 4.34 0 00-.295-1.553c-.19-.512-.286-.895-.286-1.153 0-.254.254-.65.77-1.162.513-.512.9-.903 1.158-1.161l.387-.383c0-1.033-.58-2.057-1.738-3.09-.387 0-1.355-.129-2.9-.39-1.545-.255-2.577-.642-3.09-1.162-1.419-.513-2.447-1.283-3.089-2.315l-.77-.775h-.387c-.258 0-.646-.254-1.162-.77l-3.09-3.09-3.089-3.097 2.32-.77.77-.775c.512-.512 1.161-.77 1.932-.77.77 0 1.411-.13 1.932-.383l.774-.391.77-1.545c0-.512.254-1.279.77-2.311.384-1.033.642-1.807.77-2.323l-1.544-1.545c0-1.032-.258-1.613-.77-1.742h-3.094c-1.032 0-1.544-.097-1.544-.29 0-.19-.29-.55-.867-1.061-.581-.513-.867-1.033-.867-1.545-.904-1.032-1.352-1.799-1.352-2.32l.388-.386c.254-.254.387-.65.387-1.162 0-.512-.258-.774-.775-.774-.516 0-1.032.262-1.544.774-.517.512-.77 1.287-.77 2.323-.517 1.545-.775 2.577-.775 3.09 0 .512.258 1.286.774 2.31 0 .521.125.908.384 1.162.254.262.387.65.387 1.162 0 .512-.258 1.032-.77 1.544-6.183 4.635-11.338 9.023-15.46 13.136l-2.315 2.32c0 .512-.258.77-.77.77l-.774.774-4.639 4.634c-4.634 4.634-9.014 9.789-13.136 15.455h.775zm62.59-160.725c-7.216 14.943-12.108 24.99-14.681 30.136l-.77.774v-.774c-1.545-1.42-3.094-2.186-4.639-2.315h-2.319c-.903 1.415-1.42 2.44-1.544 3.089l.58 2.315c1.029 1.545 2.126 2.577 3.283 3.097.513 0 1.029.255 1.545.77-.516.384-.77.904-.77 1.546-2.577 4.25-5.409 8.114-8.498 11.59-4.122 4.635-6.953 7.478-8.498 8.503-1.032 1.032-2.065 1.807-3.093 2.319-1.416.512-2.186 1.032-2.315 1.544v.77c0 .521.254 1.033.77 1.545l.774.775c.388 1.032.9 2.508 1.545 4.444l-.774-.58c-3.09-1.545-5.15-3.348-6.18-5.409-1.032-1.928-1.866-2.96-2.516-3.09h-.58c-1.545 0-2.32.771-2.32 2.316 0 .52.513 1.29 1.545 2.323 1.932 2.577 4.763 4.053 8.498 4.444 1.42 0 2.19.327 2.319.964.512 0 .77 1.033.77 3.09 0 1.032.254 3.09.77 6.179.517 3.226 1.55 4.77 3.094 4.642 1.029 0 1.545-1.033 1.545-3.098v-3.09c-.516-2.44-1.033-4.25-1.545-5.408-.512-5.15-1.545-8.502-3.093-10.046h-.77v-.77c1.032-.384 1.802-.896 2.318-1.545 3.606-3.219 7.212-6.824 10.817-10.821 9.28-11.325 17.52-28.07 24.732-50.23zM103.906 157.18h-.774c-1.932 0-3.739-.254-5.405-.774-.516 0-2.323.262-5.412.774H90l-.387.383-.388.391c0-.512.255-1.032.775-1.552 3.09-4.634 5.916-7.728 8.498-9.269h.77c.512 2.449 1.222 4.51 2.125 6.18l2.513 2.318v.77z" fill="#00082d"/>
  <path d="M111.634 59.622c-1.033-.387-1.807-.58-2.32-.58-4.767 0-7.082 1.286-6.957 3.863 0 .52.254 1.287.77 2.323.513 1.029.775 1.799.775 2.311 1.029.908 2.315 1.428 3.864 1.545 1.928 0 3.444-.512 4.537-1.545 1.093-1.024 1.642-2.057 1.642-3.09.008-2.181-.767-3.794-2.311-4.827zM124.77 34.314c-.517-2.57-1.545-3.864-3.09-3.864-1.544 0-2.9.775-4.057 2.32v1.544c0 .908.29 2.033.867 3.38.58 1.355 1.383 2.029 2.416 2.029 2.573.004 3.864-1.8 3.864-5.409z" fill="#560042"/>
</svg>