<svg xmlns="http://www.w3.org/2000/svg" viewBox="0 0 139.764 200" height="400" width="300"><path d="M61.711 89.94v1.419c1.9-2.367 3.082-3.787 3.553-4.267-1.42 4.735-2.125 9.474-2.125 14.205 0 3.436.238 6.037.71 7.812.468.476.714.948.714 1.42.94.947 1.42 1.661 1.42 2.133s-.714.706-2.13.706c-.472 0-1.186-.238-2.134-.706 0-.472-.238-1.186-.705-2.133-1.303-2.247-2.017-4.848-2.134-7.813 0-1.42.238-2.597.714-3.545v-1.42l-2.13-2.133c-1.423-1.42-4.025-2.84-7.816-4.259l.714 1.42v1.42c.827 2.956 2.008 5.561 3.553 7.812l.355.35.355.355v1.42l.714.714.706.714c.947 1.302 2.133 2.722 3.553 4.259l.355.706c.238.475.589.947 1.069 1.42v.713c0 .472-.246.706-.714.706h-.71l-.714.714c-.472.35-1.186.532-2.125.532l-2.84-.532c-4.267-.472-7.34-1.186-9.236-2.134a614.845 614.845 0 01-4.263-4.965c-2.367-2.956-5.207-4.376-8.518-4.267h3.554c1.298-1.891 4.085-2.839 8.344-2.839h3.731l.71.714c-.948-1.303-1.424-2.956-1.424-4.973 0-1.42.472-3.077 1.424-4.973l-.71-.706h-.714c-.468 0-1.186-.238-2.13-.714-.947-.471-1.657-.705-2.125-.705h2.125c6.155 0 12.007 1.742 15.314 4.581m-3.968 18.141c-2.957-5.678-8.405-8.526-16.33-8.526h-1.424c2.956.476 5.085 1.896 6.388 4.267.944.827 1.662 1.537 2.13 2.126.947.476 2.484.83 4.622 1.065 2.13.246 3.666.597 4.614 1.068zm37.641 1.424l.706.706v1.246c-.948 0-2.368-.415-4.26-1.246l-.886-.706h-1.251c-.468.472-.944.706-1.42.706-.947.476-2.37.714-4.262.714l-.706-.355-.714-.36c-1.424 0-4.501-.471-9.232-1.419 4.259 0 8.284-.472 12.071-1.42h1.42v-.705c-.468 0-.823-.117-1.065-.36l-.355-.35v-.706c-1.303-.472-2.722-.714-4.263-.714-4.735 0-7.812 1.182-9.228 3.553l-.718.706v.714c-.467.472-.943.706-1.42.706-.947-.472-1.48-.944-1.596-1.42 0-.472.536-1.177 1.597-2.125.948-1.779 1.653-3.908 2.133-6.393 0-1.891-.246-4.497-.718-7.812 0-.948-.234-2.133-.705-3.553-.476-1.42-.714-2.598-.714-3.545-.472-1.428-.706-3.316-.706-5.687-.48-.472-.774-.94-.891-1.42v-.706l.89.706c3.905 5.211 6.03 9.474 6.393 12.785v.706c0 .476.174.714.533.714.468 0 .758-.238.887-.714l.706-.706c.472-.471.948-.713 1.424-.713l3.553-2.126c2.246-.948 4.852-1.42 7.812-1.42h.536c.468 0 1.71.472 3.727 1.42-.472 0-1.303.085-2.484.266-1.186.174-2.009.266-2.489.266 0 3.437-.238 5.86-.706 7.28l-.355 1.242-.358.888c-.472 1.42-1.424 2.84-2.84 4.267 3.436.472 6.038 1.891 7.812 4.259l.355.35c.238.243.472.594.714 1.07.242.46.597.935 1.073 1.411m-19.351-9.946c-.359.476-.532 1.065-.532 1.779 0 .706-.246 1.303-.718 1.775 3.787-1.42 6.63-3.312 8.526-5.68.355 0 .79-.237 1.327-.713.532-.472.798-.944.798-1.42l.355-.355c.242-.233.36-.588.36-1.064.471-.472.939-1.303 1.419-2.489.472-1.177.944-1.77 1.423-1.77-3.787 1.42-7.578 3.787-11.365 7.098l-1.593 1.42z" fill="#bc00a1" /><path d="M38.283 167.348h2.839c1.775.35 4.38 1.06 7.816 2.125l-9.945.714c-4.264 0-7.103.472-8.518 1.42-.476 0-1.07.234-1.78.705-.705.472-1.302.948-1.77 1.42-1.423.472-3.085.714-4.973.714-1.77 0-3.436-.48-4.968-1.42-.472 0-.948-.48-1.424-1.42 0-.471-.234-.713-.706-.713v-1.42c0-1.775.94-3.428 2.84-4.973l1.42-2.125 4.262-.714c.468 0 1.892.242 4.267.714 4.731.948 8.046 2.367 9.938 4.259h.714v.714zm75.984-31.963h6.393c2.952 0 5.562.242 7.812.714-2.25.472-5.562 1.185-9.938 2.125-2.964.948-4.622 1.662-4.973 2.134-.475 0-1.181.355-2.129 1.069-.948.705-1.658 1.064-2.125 1.064-8.994 4.731-14.205 7.812-15.625 9.232 1.892-.948 3.783-1.657 5.679-2.133.468 0 1.42-.117 2.84-.351 1.419-.238 2.605-.597 3.552-1.069 3.428-.948 6.978-2.134 10.652-3.553.948-.472 1.424-.472 1.424 0h-.71c-1.9 2.25-5.453 5.09-10.66 8.526-.472 0-.823.117-1.06.35-.243.239-.593.356-1.07.356l-1.42.359c-.947.234-1.66.35-2.133.35-.467.472-1.064.706-1.77.706-.714 0-1.363.242-1.952.714-4.735 1.42-7.756 2.606-9.059 3.553-.943.351-1.42 1.061-1.42 2.126v.714c0 .472-.471 1.181-1.423 2.125h-.706c-.948 0-1.9-.472-2.84-1.42 0-.471-.241-.705-.713-.705h-2.84c-2.839-.472-4.972-.714-6.392-.714h-3.553c0-.472-.238-.706-.706-.706h-2.84v.706h1.949c.943.476 2.04.83 3.279 1.065 1.25.238 2.339.354 3.283.354 3.787 0 5.916.242 6.392.714 4.731.948 9.47 2.368 14.205 4.26l1.069.713 1.06.706h2.844c3.908 0 7.453.476 10.655 1.42 2.247.476 3.99 1.302 5.231 2.484 1.25 1.182 1.868 2.489 1.868 3.908 0 .948-.238 1.654-.706 2.13-.48.472-.956.706-1.428.706-2.246 1.778-4.618 2.665-7.102 2.665h-.714l-4.965-.532c-.476-.476-1.363-.714-2.666-.714H95.8c-2.956 0-5.8-.706-8.518-2.125h-1.423c-.944-.948-1.662-1.42-2.13-1.42.468 0 1.186.234 2.13.706h7.812c1.892 0 6.146-.706 12.777-2.126h2.138c.467 0 .713-.242.713-.713 0-.355-.475-.831-1.423-1.42-.948-.948-1.662-1.42-2.13-1.42-1.774-.48-4.856-.714-9.232-.714-1.423 0-4.263.234-8.526.714H77.336c-6.63 0-12.072-.48-16.33-1.42-2.255 0-4.623-.713-7.103-2.133l-2.843-1.42c-3.437-1.302-7.458-2.246-12.072-2.839a23.408 23.408 0 015.68-.714c2.955 0 5.565.476 7.811 1.42 2.957.948 5.094 1.661 6.393 2.133h7.106c1.77 0 4.142.242 7.099.714h22.017c-10.414-1.778-16.806-2.722-19.178-2.847-.944-.472-2.303-.706-4.077-.706H53.903c-.952 0-2.13-.238-3.553-.714-1.42-.472-2.368-.706-2.84-.706-1.42-.472-3.08-.714-4.968-.714h-1.424c-1.42-.471-2.84-1.177-4.259-2.125-1.779-1.303-2.73-3.436-2.847-6.393 2.254 3.437 4.622 5.09 7.106 4.973 3.311 0 5.679.472 7.102 1.42 1.892.472 4.493.706 7.813.706-1.42-.472-2.606-1.178-3.554-2.126-.467-.947-.947-1.9-1.42-2.847-2.956-5.203-6.033-9.232-9.231-12.071-6.15-6.15-12.781-9.232-19.888-9.232h-.887c2.372-.94 4.973-1.42 7.816-1.42h3.017c3.311.48 6.63 1.9 9.942 4.26 4.267 3.435 8.284 7.46 12.075 12.078l.71.706v-1.411c-.948-4.731-1.662-8.284-2.134-10.652l-1.42-5.679c-4.38-8.046-9.586-13.732-15.624-17.044l-2.125-1.6h-1.424c-1.42 0-4.259 1.951-8.522 5.86-2.84 2.839-4.493 4.734-4.965 5.678 0 .948-.242 1.42-.714 1.42v-2.126c0-2.847.714-5.445 2.13-7.812.472-.472 1.295-1.537 2.48-3.198 1.186-1.658 2.017-2.957 2.485-3.904l.714-.706v-2.134c.471-.827 1.597-1.302 3.375-1.42.468.476 1.472 1.182 3.017 2.134.472 0 1.069.234 1.775.706l1.064.714c4.731 2.956 8.756 5.795 12.072 8.518 5.21 4.739 9.232 10.893 12.07 18.464.36 2.25.832 5.09 1.425 8.526.467.472.713 3.31.713 8.518 0 .476.234.714.706.714v-1.42c0-.831.238-2.69.714-5.594.472-2.9.714-5.058.714-6.477.472-.476.71-.948.71-1.428 0-.472-.238-.706-.71-.706-1.9-.472-3.081-1.182-3.553-2.133v-2.126c0-1.891.238-2.84.71-2.84l.714.707h1.419c0 .48.117.83.355 1.068l.359.351c.472.48.94.714 1.424.714h.706v-.714l-2.126-2.125-2.484-2.485c-.714-.714-1.779-1.302-3.199-1.778h2.84c1.895 0 4.138.83 6.751 2.488 2.598 1.662 4.848 2.485 6.748 2.485 0 .48.173.713.532.713h3.013c1.42 0 2.605-.471 3.553-1.42l3.553-3.552h.706c.472 0 .83-.117 1.069-.351l.355-.36c.472 0 1.181.243 2.13.715l.536.705v4.973c-.355 0-.654.117-.888.355l-.363.36c-.943.471-1.42 1.185-1.42 2.125h.715l1.242-.351 1.597-.355c2.367-.948 5.445-2.017 9.232-3.198 3.787-1.178 6.146-2.009 7.098-2.489a3.12 3.12 0 001.428-.35c.472-.239.944-.59 1.424-1.07l.705-.705.714-.714h-2.84c-3.314-.94-5.448-1.654-6.392-2.126l-4.44-2.133-1.246-.714c-.948-.351-1.658-.589-2.126-.706v1.42c-.476 0-.948-.117-1.424-.351l-.713-.36c-.468 0-.948-.173-1.42-.523l-.887-.182c-4.263-.948-7.76-1.42-10.483-1.42h-2.839c-1.299 0-2.25.234-2.84.706l1.251.714c.468.83.758 1.775.887 2.84v.713h-.887c-.359 0-1.012-.234-1.952-.714 0-.471-.242-.822-.714-1.064l-.714-.355c-4.259-.823-6.864-1.303-7.808-1.42-2.375 0-4.029.472-4.969 1.42-.48 0-.948.242-1.423.714l-1.42 1.42h-.714v-.715c0-2.242.714-3.904 2.13-4.972 1.423-.94 3.783-1.42 7.102-1.42h1.77c1.07 0 1.896.242 2.485.714h.714c.472 0 .706.234.706.706h.717l1.42-.706c.948-1.42 3.311-2.134 7.098-2.134 2.255 0 4.38.242 6.393.714.472 0 1.069.234 1.779.706.71.48 1.294.714 1.77.714h2.134c2.363 0 5.436.948 9.232 2.84 1.42.83 2.597 1.302 3.545 1.419 1.302.48 3.198.948 5.686 1.42 3.784.48 5.913.713 6.393.713 1.892 0 3.545-.472 4.965-1.42-.827.948-2.017 1.892-3.55 2.84 0 .472-.475.83-1.419 1.069-.956.238-1.662.35-2.134.35l-.713.356c-.468.242-.948.35-1.42.35h-2.126l-.713 1.42c-2.372 5.215-6.393 8.292-12.072 9.232H91.54c-1.77 0-3.67-.238-5.678-.706l-1.42-.714h-.714l-.71.714c-1.306 0-2.012.238-2.13.706v2.134c.824 5.21 1.3 9.945 1.42 14.204 1.892-5.21 6.393-9.703 13.496-13.49.467 0 1.42-.472 2.843-1.42 1.424-.948 2.601-1.428 3.55-1.428 2.838-.94 4.968-1.71 6.392-2.307a377.215 377.215 0 015.678-1.968zm-91.609 32.668c2.364-.826 5.449-1.302 9.232-1.42.472 0 1.303.118 2.489.352 1.177.242 2.008.359 2.484.359-1.779-.948-4.44-1.428-7.99-1.428-2.839 0-4.912.476-6.215 1.428-.476.35-.714.826-.714 1.42zm39.053 7.813h6.393c1.891 0 5.92.471 12.075 1.42-.952 0-2.605.116-4.969.35-2.367.238-4.025.593-4.969 1.065H65.27c-4.26 0-8.519-.948-12.786-2.84h1.428c.472 0 .94.235 1.424.714h3.541c.359 0 .948-.125 1.779-.358zm0-14.91c-.472-.473-1.185-.771-2.125-.892.94.12 1.653.42 2.125.891zm-.706-2.844l-.713.714h1.419c0-1.42-.117-2.134-.355-2.134-.23 0-.35.476-.35 1.42zm7.099-6.389c.472-6.154.948-10.651 1.42-13.499-.944.948-2.122 1.42-3.546 1.42h-1.42c.469 5.687.706 9.946.706 12.785v1.42h2.138c.468-.94.702-1.654.702-2.126zm-.706 7.099v-1.42c0-.472-.298-.714-.891-.714H65.26v2.134h1.602zm6.925-18.464l.887-.714v-.706h-1.42l-2.847-1.597c.476 3.904.714 7.522.714 10.833v3.553c0 .472-.117.827-.355 1.06-.242.243-.359.598-.359 1.07h2.134c.472 0 .718-.472.718-1.42-.004-5.09.169-9.119.528-12.08zm-1.246 18.464v-1.42h-2.134v1.42h.714c.472.475.948.713 1.42.713zm5.678-17.75v-1.428c0-.472-.467-.706-1.42-.706v12.075l-.71 1.42v2.134h2.126v-1.42c0-.36-.117-1.069-.35-2.134l-.355-1.42c.004-1.89.242-4.734.71-8.521zm-2.125 18.463h2.125v-2.133H76.63v1.42z" fill="#00082d" /><path d="M84.442 125.447l-1.069-.714c-.714-.472-1.298-.705-1.77-.705h-1.424c-.952 0-1.428-.238-1.428-.714 0-.472.714-.948 2.134-1.42.472-.472 1.186-.714 2.13-.714.943 0 1.895.242 2.839.714.943.355 1.657.803 2.125 1.335.48.532.714 1.036.714 1.508l-.714.714c0 .472-.468.706-1.42.706h-.71c-.467-.004-.935-.238-1.407-.71z" fill="#00082d" /><path d="M105.745 24.364c2.368.948 4.021 2.368 4.97 4.26l-1.42 1.951.705 6.574v1.42c0 1.892-.706 3.545-2.125 4.965h-.714c-.948 0-1.662-2.126-2.13-6.385-2.839 0-7.578 1.182-14.2 3.546v2.133c6.146-1.891 9.937-2.84 11.357-2.84.468 0 .948.473 1.42 1.42l-3.545 2.126c-2.255 2.847-3.437 4.739-3.554 5.687l7.099 2.839c.83-1.892 1.302-3.553 1.423-4.973l-.71-1.42.71-.705h.714c2.368.822 3.553 1.536 3.553 2.125l-2.847 4.973-.706 2.133c2.957 1.42 8.64 3.788 17.044 7.099v.706c-2.25 1.427-4.384 2.133-6.392 2.133h-1.42c-1.9 0-5.679-2.133-11.365-6.392-3.904 2.839-6.978 4.259-9.232 4.259h-5.683v-.706c3.787 0 7.816-1.892 12.071-5.679V54.9L95.8 50.64c-5.678 8.05-11.357 12.071-17.048 12.071 6.986-5.678 12.189-10.885 15.625-15.624l.714-2.125c-1.42 0-5.679 1.653-12.785 4.964v-3.545l5.678-2.133v-2.134c0-4.73.948-8.99 2.848-12.777h.705v.706c5.215-3.787 9.95-5.679 14.21-5.679zm5.679-9.232c3.307 0 5.207.706 5.683 2.126v1.428c0 .947-1.182 1.657-3.554 2.125l-6.392-.706c-2.84 0-7.34 2.368-13.491 7.099h-.714l4.086-5.68h-.533l-8.526 2.126-3.545-.705c0-.472 8.046-3.078 24.143-7.813zM91.54 36.436v1.42c6.155-2.368 9.704-3.554 10.656-3.554l2.84.714v-2.84c-3.312 0-7.579 1.182-12.782 3.546-.48 0-.714.242-.714.714zm.714-3.554l8.518-2.839h2.134l2.125.532v-1.238c0-1.9-.472-2.847-1.423-2.847-3.437 0-7.216 1.895-11.358 5.686v.706z" fill="#870000" /><path d="M114.977 114.086v.532l-.355.533-.359.354v.714c-1.423.472-2.605.706-3.549.706-.948.476-2.012.714-3.198.714s-2.017-.238-2.485-.714c-.826 0-1.27-.238-1.327-.706-.064-.472.855-1.185 2.747-2.133l2.847-1.42c.468 0 .94-.117 1.42-.355.472-.234.94-.472 1.424-.714a3.09 3.09 0 011.42-.35c1.423 0 2.133.705 2.133 2.125zM112.844 119.055c.947 0 1.423.472 1.423 1.42 0 1.302-.77 2.016-2.307 2.125l-3.371-.706c-1.892 0-2.84-.472-2.84-1.42l2.84-.714h2.839c.468-.467.948-.705 1.416-.705zM59.505 91.682c-3.436-8.05-9.748-17.133-16.733-26.599-1.42-2.367-2.368-3.553-2.84-3.553v-.706l-.706-.359c-.475-.113-.947-.472-1.423-1.06-.476-.948-.948-1.428-1.42-1.428l-1.428 1.427c-7.102 6.034-12.543 10.055-16.334 12.072-.468.471-3.081 1.42-7.812 2.839 6.51-3.436 11.006-6.51 13.49-9.232.473-.472.832-1.182 1.07-2.134.237-.94.588-1.891 1.068-2.839.468-.948.92-1.653 1.331-2.133.412-.472 1.005-1.295 1.775-2.48.766-1.183 1.387-2.017 1.863-2.485 0-.36.117-.714.355-1.069l.714-.714c.238-.238.589-.35 1.06-.35h.715c.471 0 .947-.118 1.423-.356l.714-.359.706.36c.472.237.827.592 1.069 1.068.238.472.355.948.355 1.42.467.472 1.064.948 1.778 1.42.706.471 1.061.947 1.061 1.42.468.471 1.299 1.419 2.484 2.838 1.186 1.42 2.017 2.368 2.485 2.84 2.367 2.964 4.973 6.747 7.816 11.365v.706h.714c0-.94-.246-1.654-.714-2.125 0-3.316.234-7.224.714-11.717.468-4.497 1.178-8.4 2.125-11.716 1.3-4.731 2.723-8.05 4.26-9.946 1.899-2.246 4.266-4.614 7.106-7.098-4.74 4.735-7.578 13.967-8.522 27.695v6.389c0 5.679.468 13.49 1.42 23.437v1.42m31.954 21.302c0-.471.706-1.185 2.126-2.133 3.315-1.42 5.682-2.84 7.106-4.26l.706-.705c0-.48.238-.714.714-.714l1.068-.355c.706-.234 1.303-.593 1.771-1.064.472 0 1.069-.355 1.77-1.07l1.78-1.77a5.467 5.467 0 012.754-.714c1.004 0 1.508.242 1.508.714v.706h.714c0 .476-.246.948-.714 1.42-1.9 3.795-5.449 6.392-10.655 7.812-3.909.948-6.986 1.662-9.232 2.133h-1.416" fill="#00082d" /></svg>