<svg xmlns="http://www.w3.org/2000/svg" viewBox="0 0 139.764 200" height="400" width="300"><path d="M90.31 28.91c2.372 0 3.562.947 3.562 2.847h2.13c1.302 0 2.016.476 2.133 1.424v.714c0 .471-1.424 1.661-4.267 3.553l-2.138 7.824h.718c3.783-2.96 5.687-5.094 5.687-6.396.951 0 2.137.471 3.56 1.423l2.848-2.851-3.56 8.538c0 1.303-.243 2.02-.71 2.138-1.424 0-2.437-1.666-3.03-4.981-3.319 3.795-4.924 7.11-4.795 9.957v7.829c-.48 2.254-.948 3.44-1.424 3.557-.948 0-1.665-1.424-2.137-4.267l.536-7.119-6.941 7.119h-1.424l-.71-1.424v-.714l7.115-12.095c1.303-3.436 1.956-5.57 1.956-6.405-3.323.355-6.586 2.255-9.784 5.691-1.428-.472-2.138-1.424-2.138-2.843 0-1.42.952-2.848 2.851-4.267l1.424 1.423c3.32-.943 6.163-3.08 8.534-6.4 0-.827-.472-1.779-1.423-2.848.125-.476.597-.947 1.427-1.427zm3.562-10.672c3.315.472 4.98 1.658 4.98 3.561l-6.404 3.55c-4.28 2.968-7.353 4.391-9.252 4.275 5.215-4.748 7.828-7.59 7.828-8.539v-.705zm14.938 1.424l1.424.718 1.952-.718.891 2.137c-.826 3.795-1.302 8.534-1.423 14.225 2.254-1.424 4.626-3.553 7.118-6.4 1.775 0 3.67.89 5.691 2.665v.888c0 .476-4.509 2.137-13.52 4.98 0 11.741-2.846 19.332-8.537 22.768-1.896.948-3.614 1.424-5.159 1.424h-2.67v-.706c3.796-1.896 6.41-4.094 7.829-6.586 3.79-2.25 5.69-11.914 5.69-28.987v-1.423c0-.472-.71-.952-2.129-1.424v-.714c.952-1.424 1.892-2.375 2.843-2.847zm2.844 32.729c5.219 0 9.962 2.13 14.229 6.404l.714 2.13v.714c-.48.472-1.186.705-2.134.705h-3.561l-5.691.714c1.896-1.778 2.843-3.206 2.843-4.267-1.423-2.371-3.553-4.275-6.4-5.695z" fill="#870000" /><path d="M57.585 137.107c-1.423.472-2.13 1.186-2.13 2.13v.536c0 .48.473.774 1.425.887 1.423 0 2.363-.29 2.843-.887.476-.35.71-.77.71-1.242 0-.948-.71-1.424-2.13-1.424zm4.267-7.828c-1.774 0-3.198.472-4.267 1.423-.472.472-.71 1.186-.71 2.13 0 1.9.71 2.851 2.13 2.851.83 0 1.779-.718 2.843-2.137l1.428-.714c.472-.355.714-.827.714-1.424 0-.472-.242-.71-.714-.71-.476-.947-.948-1.42-1.424-1.42zm1.424 6.404c-.948 0-1.658.472-2.13 1.424v1.424l-.717.706c0 .363.472.536 1.423.536.952 0 1.666-.173 2.138-.536h.71v-.706l.714-.714v-.706c0-.956-.714-1.428-2.138-1.428zm4.981 2.844l-.71.705c-.476.363-.774 1.311-.887 2.848 0 1.428.766 2.137 2.307 2.137.472 0 .71-.237.71-.71 0-.475.238-.713.714-.713.471 0 .713-.117.713-.351v-.718c0-.238.113-.472.36-.706l.35-.359v-.887c0-.827-.234-1.242-.71-1.242h-2.847zm0-6.405c-.948.355-1.452 1.037-1.508 2.045-.065 1.012.681 1.516 2.222 1.516 1.896 0 2.843-.718 2.843-2.137 0-.823-.71-1.303-2.133-1.424h-.71zm29.745 5.497l-1.247-3.561c-1.423-1.892-4.505-3.077-9.252-3.557 1.783.48 3.207 1.185 4.275 2.133 1.424 1.424 2.134 3.09 2.134 4.981 0 1.775-.714 2.96-2.134 3.553-.947.476-1.9.714-2.847.714-2.96 0-5.808-1.008-8.534-3.025l-1.424-.536c-.952-.472-1.428-2.363-1.428-5.69v-1.424h-.713l-.351.887c-.242.355-.36.653-.36.891 0 .242-.124.36-.358.36h-1.065l-.718-.715c-.472 0-.948.238-1.424.714 0 .952.472 1.424 1.424 1.424h1.254v3.549h-.536c-1.424.835-2.138 1.783-2.138 2.847 0 .476.242.948.718 1.428l.706.71c0 .48-.472.714-1.424.714h-2.843l-.718.71c-.468.48-1 .714-1.593.714h-.536c-.476.471-1.186.71-2.138.71h-1.424c-.947 0-1.423-.239-1.423-.71l.71-1.424 1.427 1.424h.706c.472 0 .952-.234 1.424-.714l1.254-2.134v-.714c0-.948-.661-1.423-1.956-1.423-.948 0-1.666.471-2.138 1.423-.947-.948-1.9-1.423-2.843-1.423-.835 0-1.54.237-2.134.71l-.354.358-.36.351-.71-.714-.354-.355c-.246-.238-.36-.588-.36-1.068-.475-.472-.709-.944-.709-1.424-.472 0-.714-.234-.714-.706s.113-.835.355-1.069c.238-.238.589-.35 1.069-.35h.714c.948-.948 1.423-1.658 1.423-2.138 0-.948-.471-1.658-1.423-2.134h-.714v-.71l.714-.713.35-.71.719-1.424c.234-.472.588-.714 1.068-.714 1.303-.944 2.727-1.423 4.267-1.423h2.848c.472 0 .718-.238.718-.71l-2.138-1.428h-.706c0-.35.472-.589 1.424-.706h.706c2.258 0 4.15.948 5.69 2.848.952.947 1.428 1.665 1.428 2.133 0 .472-.359.835-1.068 1.069l-1.073.355c3.795-.472 6.404-1.658 7.828-3.557.472-.472.706-1.662.706-3.562.472-.943.948-2.363 1.428-4.267 0-5.215-.242-8.534-.714-9.958-.476 0-.835-.234-1.069-.713-.242-.472-.597-.948-1.073-1.424v-1.424c0-.476.472-.952 1.424-1.424.472 0 .83-.238 1.073-.713l.359-.71c.94-.472 3.081-2.138 6.396-4.981 0-.948.238-1.424.718-1.424.94 4.267 2.134 7.115 3.557 8.534 1.424 2.372 4.025 4.743 7.825 7.119l3.553 2.13c0 .48-.468 1.185-1.424 2.137a153.768 153.768 0 00-4.977 3.557l-1.423.706c-2.38.952-3.558 3.323-3.558 7.118v1.424l1.424-.714c.472-.472 1.396-1.069 2.763-1.774a64.734 64.734 0 013.642-1.783c2.956-1.295 4.856-2.484 5.69-3.55a7.897 7.897 0 011.424-1.423c0-.472.117-.83.355-1.069.238-.238.351-.589.351-1.069.484-.826.718-1.54.718-2.137 0-1.424-.234-2.843-.718-4.267-.468-.472-1.892-1.178-4.267-2.134-3.44-1.9-5.57-3.795-6.4-5.695l-.715-1.423a9.634 9.634 0 01-1.423-1.34c-.476-.528-.71-1.032-.71-1.512-.472-1.423-.714-2.605-.714-3.557v-2.133c0-.472-.246-1.186-.714-2.134l-1.424-.71h-1.423c-.952 0-1.904.238-2.844.71-1.423.948-3.089 2.843-4.98 5.69-.948.949-1.666 1.429-2.138 1.429s-.948-.242-1.424-.714c-.948-.948-1.956-2.19-3.017-3.731-.363-.359-.536-.77-.536-1.25l-.718-.71c-1.424-.472-2.371-.714-2.843-.714-1.424 0-2.138.242-2.138.714-.468 0-1 .653-1.593 1.956v4.449c0 4.739 1.004 8.3 3.017 10.671.952.827 1.661 1.54 2.133 2.134v-.71c.472.952.948 1.424 1.424 1.424-1.424-1.783-2.133-4.864-2.133-9.248v-7.119c.48.48 1.072 1.186 1.782 2.138l1.601 2.137c.94 0 1.476.472 1.597 1.424h-1.597l-1.254 1.424c-.472.472-.706 1.185-.706 2.13 0 .951.472 2.37 1.424 4.27l2.13 2.134c.471 1.424.713 3.085.713 4.98v3.562c-.476 2.96-.947 4.864-1.423 5.69-.831 2.372-1.779 3.558-2.844 3.558v-1.424c0-2.254-1.19-4.146-3.561-5.694-.476 0-.83-.113-1.069-.355-.238-.238-.65-.351-1.242-.351H64.37a6.8 6.8 0 00-2.138.35l-1.07.356c-4.738 1.423-8.062 4.037-9.957 7.824l-1.424 3.557v2.848c0 2.254.468 4.392 1.424 6.404 1.774 4.747 5.336 7.59 10.672 8.534.943.48 2.137.714 3.56.714 2.844 0 5.212-.472 7.111-1.424l.718-.713.706-.71c1.779-.948 2.96-2.372 3.561-4.267v-.714c2.372 2.847 5.453 4.509 9.252 4.98.468 0 .94.122 1.424.356 0 0 5.804-1.117 7.998-3.86 2.202-2.718 1.795-7.147 1.795-7.147z" fill="#a00283" /><path d="M10.635 102.24c.472 1.424 1.182 2.372 2.13 2.844h3.561c.944-.472 1.98-.823 3.11-1.06 1.125-.239 1.976-.598 2.577-1.07h1.424-.706l-2.848 4.267c0 .472-.242.948-.713 1.424-.472 0-.835.117-1.07.355-.241.242-.354.593-.354 1.069-2.376 1.903-3.795 4.747-4.271 8.542v.71c0 3.795 1.657 6.167 4.98 7.118.473.472.94.71 1.424.71.476 0 .795-.117.976-.355.182-.238.267-.472.267-.714v-1.068c0-.355.286-.59.887-.71l.718-9.248c0-2.372.234-4.267.706-5.691.471-1.9 1.19-3.323 2.137-4.275 2.247-1.892 5.57-2.844 9.958-2.844 1.779 0 4.15.48 7.119 1.424h-1.424c-6.643 0-10.914 1.904-12.81 5.699-.471.355-.947 1.06-1.423 2.13v3.557l.718 1.956c.468.948.887 1.718 1.238 2.31.952.953 1.718 1.425 2.315 1.425 1.896 0 3.077-.71 3.557-2.134.468-.472.71-1.186.71-2.134v-1.423c0-1.424.476-2.61 1.428-3.557 1.423-2.848 3.315-5.215 5.69-7.115l.537-.35.706-.364c.472 0 1.008.242 1.6.714l.719.706a49.308 49.308 0 0112.801 9.248c-2.96-4.74-6.046-8.062-9.252-9.958 0-.472-.234-.835-.706-1.069l-.718-.35-.706-2.848v-1.783c0-.71-.246-1.302-.717-1.774v-7.119l-.351-.71a3.037 3.037 0 01-.355-1.423l-.718-1.424c-.472-.472-1.186-.714-2.134-.714-1.423 0-2.61.476-3.557 1.424-.476.83-.71 1.782-.71 2.843v.714c0 2.371.71 4.51 2.134 6.405.472 0 .827.117 1.073.355l.705.713c.234.238.448.472.617.71.182.246.267.48.267.714 0 .234.117.593.363 1.069l.528.706v.718c-.472 0-.77-.238-.891-.718-3.316-.944-5.63-1.424-6.933-1.424h-2.852c-.472-.472-.71-.948-.71-1.424h-.713c-.948-1.423-1.424-3.315-1.424-5.69 0-.948.234-1.424.714-1.424 0-.472.238-1.186.71-2.138.471-.952.713-1.657.713-2.133 0-1.424-.48-2.606-1.423-3.553a6.719 6.719 0 00-3.03-.714l-.532.714h-1.423c-.48.471-.948 1.185-1.424 2.129-.948.948-1.424 2.372-1.424 4.267 0 .956.234 1.666.706 2.138l1.428 2.67c1.428 2.371 3.085 4.085 4.98 5.154-1.778.48-3.202.952-4.27 1.424l-.714.718-.71-.718c-.48 0-.948-.234-1.424-.706l-.718-.36-.705-.354-6.405-1.424H14.87c-1.871 1.073-3.29 2.497-4.235 4.271zm21.344 48.382c-.952 0-2.61.472-4.981 1.424-1.904.476-3.323.948-4.267 1.424l-.363.713-.355.71-1.424.714c-.948.472-1.895 1.186-2.843 2.13l-.718 1.423h.718c1.424-1.423 3.791-2.13 7.11-2.13h1.428l1.428.71v2.848c0 1.783.234 3.44.706 4.981.354.48.826 1.186 1.423 2.134H36.96l.714.71 1.423 1.427.71 1.424 2.134 2.13h1.952c1.423 0 4.331-1.178 8.715-3.55 4.747-2.371 7.825-3.795 9.248-4.275.476-.472 1.9-.944 4.276-1.424h.536c-.363 0-.536-.238-.536-.71a32.068 32.068 0 00-5.695-.89c-3.791 0-6.397.773-7.825 2.314l-1.423.71v-1.424c0-.943-.472-1.895-1.428-2.843l-1.424-1.424c-.472-.472-1.181-.952-2.125-1.424h-2.319l-.351-.35a3.13 3.13 0 00-.537-.718c-.242-.238-.471-.351-.705-.351h-1.428c-.242 0-.597-.238-1.073-.714-.476 0-.948-.238-1.424-.71-.475 0-.83-.42-1.068-1.25l-.355-.887c-.36-.944-.831-1.658-1.428-2.138-.468-.48-1.658-.714-3.545-.714zm-4.267 16.359h-1.428c-1.428 0-2.847.48-4.271 1.423-2.255 1.783-3.444 3.916-3.553 6.4V180.504c1.423 3.788 3.319 5.692 5.69 5.692h.706c-2.371 0-3.613-2.138-3.73-6.405l-.182-.891c-.238-.714-.355-1.364-.355-1.957l.355-.713.182-.706 1.6-3.561c1.424-3.316 3.082-4.981 4.986-4.981zM67.547 36.077c-3.323 0-5.929.951-7.824 2.847l-1.424 1.424c-.48.48-1.186 1.185-2.133 2.137-.948.948-1.9 1.892-2.848 2.844-4.267 5.214-6.876 10.913-7.824 17.072v2.138l-1.601-.714c-1.303-.472-2.428-.706-3.376-.706h-2.138c-3.795.827-6.4 2.96-7.82 6.396l-.718.714v.71c0 1.783.952 2.969 2.848 3.557.472.48 1.181.714 2.133.714s2.25-.359 3.916-1.069c1.654-.717 2.727-1.068 3.199-1.068.468-.472 1.423-.706 2.843-.706v2.843c0 2.848.242 5.215.714 7.115.472.476.827 1.064 1.073 1.774l.35 1.07 11.386 18.495c2.848 4.275 5.22 7.357 7.115 9.248 3.79 3.795 7.118 5.933 9.962 6.405-1.779-1.424-5.102-4.981-9.962-10.672-2.96-4.384-5.102-7.707-6.405-9.958-.472-.48-.823-1.069-1.069-1.782-.238-.71-.589-1.307-1.064-1.78l-.714-1.245-.71-.888a538.185 538.185 0 01-3.739-5.69c-.835-.827-1.246-1.541-1.246-2.138 0-.472.355-1.069 1.069-1.779.714-.713 1.064-1.302 1.064-1.774v-.36c0-.237.238-.354.714-.354h.718v.714h.706c.476 0 1.19-.238 2.138-.714.471 0 .826-.117 1.064-.355.246-.238.593-.359 1.07-.359l1.423-1.424c2.371-1.423 3.561-4.267 3.561-8.534v-1.423c0-1.424-.714-2.61-2.138-3.562-.947-.472-1.895-.706-2.843-.706s-1.895.238-2.843.706v1.424l-.71.718c-.48 0-.718.117-.718.35 0 .235-.113 1.187-.355 2.848-.242 1.666-.593 2.735-1.069 3.207 0 .471-.355 1.06-1.064 1.774-.714.706-1.073 1.303-1.073 1.775-.952.48-1.428 1.185-1.428 2.137l.363.355.355.351-1.424 1.428v-1.428c-.476-1.775-.718-3.67-.718-5.69v-2.13h.718c.472 0 .706-.299.706-.896 0-.35-.234-1.242-.706-2.665 0-.472-.246-.948-.718-1.424v-2.138l.36-.706c.233-.359.358-.834.358-1.423.944-6.639 4.025-12.572 9.248-17.79.827-1.424 1.509-2.138 2.045-2.138s.803.242.803.714c.94.472 2.13.706 3.553.706.472 0 1.186-.11 2.133-.355.948-.238 1.541-.351 1.783-.351.234 0 .944-.121 2.125-.355 1.19-.238 2.021-.36 2.489-.36.472 0 1.19-.237 2.138-.705.943-.827 1.423-1.54 1.423-2.137l-.714-1.424c0-.472-.117-.827-.355-1.069-.238-.238-.354-.589-.354-1.06h-.888a11.812 11.812 0 00-4.097-.719h-2.836zm-12.81 74.706c-.947-.472-2.133-.718-3.556-.718-2.96 0-5.574 1.185-7.825 3.561-3.44 2.847-5.102 5.453-4.977 7.824 0 .948.242 1.658.714 2.13.468.476 1.424.948 2.844 1.424.468.48.947.713 1.423.713.831 0 1.541-.238 2.134-.713.472-.355 1.424-1.533 2.843-3.554 0-.472.242-.947.718-1.423l.706-.714c.472-.944.718-1.896.718-2.844 0-.471-.117-.951-.355-1.423l-.363-.714c.468-2.364 2.134-3.55 4.977-3.55zm-8.53 34.148c-1.427 0-2.613.238-3.56.71-.948.48-1.424 1.666-1.424 3.557v1.424c.944.472 1.839.706 2.662.706h.891c.48 0 .952-.113 1.428-.355.472-.238.944-.35 1.423-.35.472 0 .944.233 1.424.705.472.48.944.714 1.424.714.823 0 1.54-.238 2.13-.714.471-.472.713-.944.713-1.424 0-.472-.242-1.177-.714-2.13v-.362c0-.238-.294-.59-.887-1.061-.359-.472-.77-.714-1.246-.714-1.424-.472-2.61-.71-3.561-.71h-.702zm37.699 19.92v6.404c-.472-.834-1.896-1.782-4.267-2.85v-2.134c.947-1.892 1.657-3.557 2.133-4.981.36 0 .795.21 1.331.62.532.42.799 1.158.799 2.223v.718zm9.966-10.672l-5.7.71.719.714c1.302 0 2.246.71 2.843 2.13l.355 1.423c.238.952.593 1.424 1.069 1.424l2.137.714c.472 0 .94-.117 1.424-.355l.532-.359c.472 0 1.009-.238 1.606-.71l.71-2.847c0-.472-.472-1.186-1.428-2.134-.48-.476-.948-.71-1.424-.71h-1.424zm5.69-5.694H98.49c-.71 0-1.122.242-1.247.713l-1.952.706c0 .48.238.718.71.718v-.718a11.095 11.095 0 013.561 2.138c.472.476 1.182 1.069 2.134 1.774l2.13 1.783c.83.472 2.258.71 4.27.71h2.134c.948 0 1.601-.472 1.952-1.424.472-.476.77-1.182.891-2.133v-1.428c-.826-1.424-1.774-2.13-2.843-2.13-.472 0-1.073.117-1.775.355-.717.242-1.306.351-1.782.351-.472-.472-.948-.827-1.424-1.06-.476-.234-.948-.36-1.424-.36h-4.263zm-2.315-6.405c0 .48.29.714.892.714v-.714zm.892.714l-.892-.714h.892zm30.591-3.562v-1.423c-.472-1.892-1.424-3.082-2.843-3.553-.472 0-.948-.242-1.424-.714l-.718-.351a3.142 3.142 0 00-1.424-.36h-.71c-.947 0-1.661.243-2.133.715-.952 0-3.553 1.185-7.824 3.561-1.896.948-4.267 2.372-7.11 4.267.35 0 .94-.117 1.77-.355l1.073-.359h9.244c.472.48 1.153.831 2.049 1.069.89.246 1.629.597 2.222 1.069h2.137c1.9 0 3.562-.238 4.985-.714 0-.472.105-.944.351-1.424l.355-.887zm-34.153 5.853h-.705m4.601-1.65c-6.162 4.929-11.006 10.232-11.006 10.232l-3.553 3.561c-2.259 3.44-3.916 6.522-4.981 9.248v1.424h-.718l-1.424-2.133c-.948 0-1.484-.472-1.593-1.424 0-.472.758-1.896 2.307-4.267.944-1.424 1.658-2.848 2.13-4.267 0-.835-.238-1.307-.71-1.424h-.718l-.706.706-1.424.718a36.685 36.685 0 01-1.956 1.774l-.891 1.07c-.476 0-1.186.471-2.134 1.423l-.718-.718v-1.424c-2.246-3.32-6.755-5.21-13.515-5.69H54.73c-4.271 0-7.82 1.423-10.672 4.267 3.323-1.307 6.405-2.013 9.248-2.13h2.138c1.895 0 4.743.706 8.538 2.13 2.843.947 4.739 1.665 5.69 2.137.944.952 1.424 1.658 1.424 2.13h-.718c-.947 1.31-1.423 2.968-1.423 4.98v1.424c0 .948.363 1.783 1.073 2.489.713.714 1.068 1.31 1.068 1.782.472 0 .706.472.706 1.424 0 .472-.117.952-.35 1.424a3.074 3.074 0 00-.356 1.423c0 .472.238.944.706 1.424.48 1.779 1.908 3.198 4.28 4.267h1.423c.944 0 2.368-.472 4.267-1.423.827-.472 1.54-1.186 2.138-2.138.94-.948 1.423-1.896 1.423-2.843v-1.424l1.424 2.137 1.424.71c.94 0 1.428.238 1.428.714H90.136c1.429 0 2.909-.714 4.454-2.133 1.427-1.424 2.129-3.082 2.129-4.977 0-.952-.238-1.428-.706-1.428-.48-1.896-1.428-2.843-2.851-2.843-.476 0-1.065-.121-1.779-.355l-1.246-.351a13.833 13.833 0 01-4.796-2.32l-2.137-1.241v-.714c.472 0 .718-.238.718-.706 2.96-4.267 7.647-9.014 14.047-14.233.472-.944 4.8-4.501 12.983-10.672l1.073-.71a41.114 41.114 0 001.686-1.427c.536-.472 1.036-.71 1.508-.71s2.61-.238 6.405-.714c1.423-.472 2.375-.944 2.847-1.424l1.428-2.13v-2.851c.472-.35.71-1.06.71-2.13 0-.471-.238-1.068-.71-1.778-.476-.714-.714-1.303-.714-1.783v-2.311c-.48-.826-.948-1.484-1.424-1.956-1.423-.947-2.436-1.423-3.025-1.423-1.302 0-2.432.472-3.38 1.423 0 .472-.116.835-.354 1.07-.246.237-.593.354-1.07.354-.475.351-.717 1.069-.717 2.138-.948 1.423-1.424 4.033-1.424 7.824 0 .472-.145.948-.44 1.424-.294.476-.443.947-.443 1.423-.355 0-.536.472-.536 1.424l.536.71v1.424h-.536c-.472.476-.948.713-1.424.713 0-.008-6.308 4.76-12.475 9.68z" fill="#00082d" /></svg>