<svg xmlns="http://www.w3.org/2000/svg" viewBox="0 0 139.764 200" height="400" width="300"><path d="M61.852 126.964h-1.524c-1.529 0-2.666.387-3.432 1.145-.763.766-1.146 1.916-1.146 3.44h1.529c2.033-.504 3.557-1.524 4.573-3.057v-.758z" fill="#a00283" /><path d="M97.449 18.851c1.456.363 2.182.855 2.182 1.46v.726c-2.432 2.436-3.642 3.896-3.642 4.384h2.186c1.456 0 3.4-.488 5.836-1.46 2.432.972 3.646 2.182 3.646 3.642-2.432.976-5.348 3.351-8.752 7.114v.912c8.268 4.5 16.778 8.147 25.538 10.942l.726.734c-4.497 2.315-7.663 3.529-9.486 3.65-2.436-.855-8.752-4.985-18.972-12.406-8.264 8.756-16.048 13.132-23.34 13.132 6.316-3.4 11.91-7.538 16.774-12.402l2.92-2.92-6.747-2.92c-.363.847-1.037 1.274-2.009 1.274l-.726-.548c0-2.428 2.186-5.11 6.562-8.026 3.4-3.037 5.11-5.223 5.11-6.566zm-9.486 13.862c2.428 0 4.86.492 7.292 1.46l4.376-5.836-2.182-.73c-2.803-.117-5.969 1.585-9.486 5.106zm6.38 12.402h.912c5.352.976 8.03 2.678 8.03 5.11-.855.855-3.529 1.823-8.03 2.92-1.819 1.46-3.279 2.916-4.376 4.376 0 .85 2.916 1.827 8.752 2.924 4.38 2.436 6.574 4.622 6.574 6.562 0 .492-.492.734-1.464.734-1.819 0-6.445-1.944-13.862-5.836l-1.46-2.19c0-2.307 1.948-5.715 5.836-10.212v-.734l-2.92-2.92z" fill="#870000" /><path d="M93.9 118.216c-2.033-.508-4.316-.763-6.857-.763-3.182 0-5.218.255-6.114.763v-2.287c-.5-1.02-1.266-1.779-2.279-2.29-1.02-.505-1.786-.76-2.294-.76-3.178-.503-5.72-.765-7.631-.765h-3.058c0-1.904.517-3.433 1.533-4.574l.384-.383.758-.766c.254-.25.504-.38.762-.38.25 0 .38-.254.38-.766 0-.504-.38-.758-1.142-.758-.758 0-1.654.254-2.674.758-1.017.512-1.77 1.404-2.283 2.67-.512 1.275-.766 2.166-.766 2.674v2.287c-2.541 0-4.574 1.02-6.102 3.053-3.054-4.574-7.631-7.377-13.737-8.393h-3.053c-5.594 0-9.668 1.524-12.209 4.574-1.016 1.524-1.774 3.315-2.283 5.343 0 .509.25 1.025.759 1.525.512.508.766 1.02.766 1.525l-1.525.766c0 1.016.509 1.778 1.525 2.287.504.516.758 1.016.758 1.524 1.017 1.017 2.795 1.525 5.344 1.525.5 0 1.141.133 1.912.387.758.254 1.391.379 1.903.379 3.054 0 4.578-.508 4.578-1.525 0-1.02-1.266-1.524-3.811-1.524-3.182-1.02-5.534-2.033-7.058-3.053-.38-.508-.573-1.017-.573-1.533v-.758c.383 0 .573-.254.573-.762v-.763c1.524-2.544 3.876-4.319 7.058-5.343H40.5c3.686 0 6.99 1.02 9.917 3.053h-2.282c-2.424 0-5.22.512-8.401 1.524 5.602 0 9.413.512 11.45 1.525 1.524.512 2.287 1.27 2.287 2.29 0 1.525 1.016 2.291 3.053 2.291.508 0 1.02-.25 1.528-.766.504.516 1.275.766 2.291.766.508 0 .758-.508.758-1.524l-.758-.766c-.516-.505-.77-1.017-.77-1.525 0-.504.254-.762.77-.762 0-.508.508-.763 1.52-.763.517-.504 1.154-.762 1.912-.762h1.904v3.815c.516-.887 1.02-1.399 1.532-1.524 1.017-1.525 3.308-2.29 6.865-2.29h.758c.512 0 1.275.511 2.295 1.524h-.766v.762l-.763 1.525-2.286.766c0 1.016.762 1.524 2.286 1.524.513 0 2.041-.508 4.586-1.524 4.937-2.033 9.518-3.053 13.713-3.053z" fill="#a00283" /><path d="M51.165 106.395c0 .504.379 1.145 1.145 1.903.758.767 1.395 1.34 1.904 1.718h3.06l-.766-.572c-.508-.509-.766-1.02-.766-1.525 0-1.02.258-1.783.766-2.29.509-.509 2.287-1.525 5.34-3.054a4562.23 4562.23 0 0118.319-5.344c-1.408-.508-3.69-.758-6.873-.758 0 0-7.71-.492-15.031 2.565-7.32 3.057-7.098 7.357-7.098 7.357zM93.138 104.104c0-2.412-2.291-4.199-6.865-5.344-.512-.508-1.403-.758-2.674-.758h-3.432c-.512.504-.83 1.02-.952 1.524 0 .508.569.766 1.71.766 1.02 0 2.295.254 3.824.759l3.049 1.524c.508.512.766 1.02.766 1.525v1.524c0 .508-.258 1.27-.766 2.291l-.759.38c-.512.257-.89.511-1.145.765-.258.255-.38.573-.38.952 0 .504.251.827.76.952.882 0 1.645-.314 2.29-.952 1.525-.383 2.537-.826 3.053-1.343l.758-1.52v-2.287c.504.008.763-.246.763-.758zM112.21 111.734l-.947-.766a13.137 13.137 0 00-.956-1.145l-.375-.375h-.77l-.759-.77c-2.04-1.013-4.836-1.521-8.397-1.521-3.178 0-5.469.258-6.868.766-1.02.504-2.166 1.27-3.44 2.291-1.271 1.016-2.154 1.52-2.663 1.52-.512 1.02-2.557 2.287-6.114 3.812h.77c2.533 0 6.61-1.263 12.197-3.812 1.403-.504 2.936-.766 4.585-.766 2.041 0 3.76.262 5.15.766 1.53 1.525 2.356 2.55 2.477 3.054 0 .504-.254 1.145-.758 1.907-.512.767-.766 1.4-.766 1.904 0 1.532.766 2.29 2.294 2.29h.759c2.032 0 3.557-.503 4.577-1.524l.392-.766c.25-.38.383-.758.383-1.137v-1.912c.004-1.017-.262-2.287-.77-3.816z" fill="#a00283" /><path d="M38.202 137.651c-4.586-3.553-8.655-5.593-12.212-6.102-1.017-.504-2.287-.766-3.816-.766-2.42 0-4.456.258-6.106.766-1.908 1.525-3.182 2.985-3.815 4.384v.952c0 .516-.254.766-.759.766v1.525c.505 2.04 1.263 3.565 2.287 4.578.504 0 1.02.129 1.52.379.509.262 1.021.387 1.53.387.508 0 .766.38.766 1.145 0 .759.254 1.142.762 1.142l1.528.766h1.327c.509.504 1.597.758 3.251.758.508 0 1.492-.117 2.956-.379 1.456-.254 2.763-.379 3.909-.379 4.202 0 7.255.504 9.155 1.525-2.42-3.558-6.744-5.594-12.97-6.103-3.175 0-4.966-.254-5.34-.766v-.758c0-1.525.253-2.29.766-2.29.5-.505 1.524-.767 3.049-.767 3.053 0 6.864 1.274 11.442 3.82 3.053 1.016 6.36 2.798 9.93 5.343-1.916-3.444-4.961-6.747-9.16-9.926zm3.811 34.339c-2.028-1.525-4.827-2.287-8.393-2.287-2.032 0-3.811.254-5.331.758-.52 0-1.537.512-3.066 1.525-1.52.512-2.855 1.016-4.005 1.52l-.193.387-.375.38-.383.379c-.259.254-.638.379-1.146.379-.508 0-1.02.766-1.524 2.29v3.816l.762 1.524c0 .505.254.759.758.759 0 .508.254.766.766.766h.759l1.524.573c.508 0 1.013-.19 1.529-.573.504 0 1.141-.13 1.907-.38.763-.257 1.525-.765 2.287-1.524.763-.766 1.34-1.15 1.718-1.15l4.768-2.29c2.036-1.016 3.565-1.779 4.581-2.29h-3.053c-.512 0-2.287.253-5.34.766-.895.508-1.907.766-3.053.766-.512 0-.762-.258-.762-.766l1.536-1.525c.505 0 1.138-.129 1.9-.38l1.146-.386c4.065-2.017 7.63-3.037 10.683-3.037zm5.348-15.262c-.512-5.086-5.102-7.63-13.74-7.63-3.054 0-5.603.512-7.631 1.528 0 .508-.513.762-1.525.762l-.762.763c-.516.379-1.02 1.141-1.529 2.286-.512 1.525-.83 2.545-.956 3.054v.758c.509 1.024 1.081 1.722 1.727 2.101 1.008.512 3.049.835 6.102.96 1.395 0 3.146-.165 5.247-.484 2.101-.315 3.654-.48 4.67-.48h3.053l-.375-.565-.383-.766c-1.528-1.524-3.565-2.545-6.114-3.049H30.57c1.529-1.02 4.074-1.524 7.64-1.524 4.19 0 7.235.758 9.15 2.286zm45.777 22.13c-4.195-1.903-8.777-2.924-13.725-3.049H76.36c-2.553 0-5.344.504-8.397 1.525-1.017 0-2.42.254-4.19.766-1.792.508-2.937.887-3.445 1.141-.504.254-1.529.388-3.05.388-1.02 0-1.786-.259-2.294-.767l-1.904-.758c-1.27-.512-2.42-.766-3.436-.766-3.057 0-4.582 1.02-4.582 3.053 0 .508.194 1.02.577 1.524 1.016 1.525 2.097 2.291 3.247 2.291 0 .383.5.758 1.524 1.15l1.525.379H57.279c2.033 0 4.07-.262 6.102-.767a54.361 54.361 0 006.11-1.907c2.033-.758 3.812-1.146 5.336-1.146 3.565-1.016 6.618-1.778 9.163-2.286l2.666-.388c1.65-.254 3.053-.379 4.203-.379h2.278zm-6.86-13.737c-6.615-1.012-12.217-1.524-16.79-1.524-10.689 0-18.634 1.782-23.849 5.344 15.383-.383 24.865-.888 28.422-1.525 7.126-1.528 11.196-2.295 12.216-2.295zm-6.87 5.344c-.511 0-2.42-.125-5.722-.383-3.312-.25-5.727-.379-7.252-.379h-3.819c-5.594.504-10.684 2.287-15.258 5.336v.766-.766h4.57c12.591-.504 20.984-1.525 25.179-3.05.512 0 1.15-.253 1.912-.757.762-.505 1.395-.767 1.915-.767h.758-.758zm-5.347-10.68c-.508 0-1.396-.129-2.666-.387-1.267-.254-2.166-.379-2.674-.379-.504 0-1.4.125-2.666.38-1.275.257-2.166.386-2.674.386-6.102 0-11.188 1.775-15.257 5.336 4.069-.508 10.3-1.141 18.697-1.907 8.397-.767 14.624-1.396 18.698-1.904-2.553-1.02-6.368-1.525-11.458-1.525zm-10.68-7.634c.508-1.017.762-2.287.762-3.82 0-2.032-.254-4.32-.762-6.864h3.057c-.512 1.524-.766 3.303-.766 5.336v2.29c0 1.53.254 2.545.766 3.054h-3.057zm21.372-77.074c0-1.02-.396-2.04-1.15-3.061-.762-1.008-1.141-1.775-1.141-2.287l-.762-1.912-.759-1.907c-1.024-.504-2.295-.758-3.823-.758-.5 0-1.525.254-3.053.758l-.758.766v.758c-2.416 4.074-4.199 7.385-5.34 9.918v15.265c0 1.525-.258 2.291-.763 2.291 0 .38-.117.758-.379 1.137l-.383.388c2.037 0 3.243-.504 3.626-1.525 1.529-1.02 2.347-3.311 2.472-6.868V82.696c0-1.525.508-3.053 1.525-4.578l2.295-.77.383-.375.375-.38c-.5 4.578-1.267 7.627-2.287 9.156-1.02.512-1.524.952-1.524 1.339v.952h1.524c1.533 0 2.549-.319 3.061-.952.38 0 .726-.222 1.045-.674.318-.44.738-.92 1.238-1.427 2.037-1.525 3.303-2.545 3.823-3.058.497-1.516.755-3.799.755-6.852zm-15.266 77.074c.383-1.017.577-2.803.577-5.348 0-1.908-.194-3.937-.577-6.102 1.4-.509 2.416-.759 3.05-.759v9.925c.507 1.525 1.016 2.288 1.524 2.288h-4.574zm8.97-1.525c0 1.016.569 1.783 1.71 2.291-1.016 0-1.775-.254-2.279-.762H76.36v-.763c.508 0 .758-.254.758-.762v-3.819c0-1.525-.25-3.053-.758-4.578 0-.508-.137-1.012-.388-1.524a3.386 3.386 0 01-.383-1.525h3.824c0 1.016-.162 2.674-.48 4.957-.319 2.29-.472 3.944-.472 4.965v1.52zm22.315-67.156c-.512-1.016-1.012-1.783-1.524-2.29-.512-.509-1.529-.767-3.05-.767-2.423 0-5.218 1.274-8.392 3.82-3.57 3.565-5.344 7.888-5.344 12.97 2.033-3.557 5.344-7.123 9.917-10.68-.508.38-.891.988-1.141 1.811-.254.823-.38 1.492-.38 2l-1.528 1.533-1.524 1.525v1.524c0 .883.246 1.4.758 1.525l3.811-1.525c1.4-1.02 3.437-2.799 6.107-5.344 0-.508.12-.887.383-1.15l1.145-1.33c.504-.887.762-2.093.762-3.622zm28.999 51.89c-.504-3.177-1.331-5.21-2.477-6.101-1.907-.888-3.876-1.4-5.92-1.525h-.759c-4.073 0-8.142.758-12.212 2.29-2.025.505-5.09 2.284-9.155 5.337-7.127 4.073-11.958 8.909-14.495 14.507 6.48-6.114 13.6-10.748 21.367-13.935 3.174-1.4 6.227-2.1 9.16-2.1 2.42 0 3.613.261 3.613.761 0 .509-.697.956-2.097 1.335-3.686 2.037-8.518 4.138-14.503 6.296-3.17 1.016-5.47 1.525-6.865 1.525 6.107.379 11.188.64 15.266.766h5.723c1.274 0 2.101-.25 2.472-.766 1.525 0 3.122-.505 4.776-1.525 3.053-1.524 5.09-3.815 6.106-6.864zm-9.156 20.606v-2.29c-.512-.505-1.27-1.013-2.29-1.521-1.525-1.525-3.179-2.287-4.957-2.287-1.775 0-3.436.758-4.96 2.287l-.76.762c-.511 0-1.145.254-1.919.758-.754.512-1.52 1.02-2.275 1.525-.77.512-1.415 1.02-1.915 1.528l-.763.767-.758.758c-.508 0-.762-.254-.762-.758-1.529-1.02-3.815-1.525-6.869-1.525-2.036 0-3.81.254-5.34.758 3.687 1.525 5.724 2.55 6.099 3.057l.77.565h-.77l1.343 1.718c1.524 2.037 3.11 3.566 4.77 4.578 2.038 1.407 4.833 2.166 8.398 2.29 1.528 0 2.533-.253 3.053-.758.891 0 2.416-.516 4.582-1.532 2.024-1.525 3.553-2.795 4.573-3.812.504-1.524.763-3.303.763-5.343v-1.525zm-3.815 19.84c-.508-.51-1.274-1.021-2.283-1.525-1.532-1.02-3.444-1.654-5.719-1.912-2.295-.254-5.094-.504-8.397-.758-3.315-.25-5.469-.38-6.49-.38a152.287 152.287 0 0111.443 3.808c.512 0 1.27.258 2.295.766l1.528.758c.5 0 .888.13 1.138.388.254.254.44.379.572.379h.573c0 1.02-.5 1.524-1.524 1.524-.504 0-1.779-.504-3.808-1.524-1.528-.38-2.807-.638-3.823-.767-.508.388-.758.896-.758 1.533l.758.758c.891.508 2.416 1.525 4.582 3.053 2.549 1.525 4.827 2.291 6.868 2.291h.766c2.029 0 3.3-1.02 3.808-3.053l.572-1.525c-.008-1.14-.705-2.415-2.1-3.815zm5.344-86.996c-.516-1.908-1.274-3.178-2.29-3.811-1.904-1.02-3.433-1.525-4.574-1.525-1.533 0-3.316.504-5.348 1.525-1.02 1.02-2.283 2.032-3.808 3.053-4.585 4.198-7.384 9.026-8.4 14.495 1.016-2.029 2.734-4.324 5.15-6.869 3.686-4.069 6.804-6.102 9.352-6.102 1.017 0 1.78.25 2.287.759 0 .512-.39 1.016-1.15 1.532l-1.137.758c0 .509-.133 1.017-.383 1.525a2.53 2.53 0 01-1.145 1.15c-.52.253-1.024.64-1.525 1.145l-.77.758c-.5.512-.758 1.016-.758 1.525 0 1.524.758 2.29 2.283 2.29.504 0 1.024-.254 1.524-.762 3.178-1.012 5.663-2.033 7.441-3.053 2.041-1.904 3.122-4.449 3.251-7.627zm-9.918 69.439c-.52 1.407-2.294 2.101-5.347 2.101-1.529 0-2.86-.185-4.005-.565 1.657-.508 4.77-1.02 9.352-1.536zm-60.662-55.246c.504-.504.758-1.017.758-1.525l.758-.383c.513-.254.77-.637.77-1.145l.38-1.146c.25-.766.379-1.4.379-1.903 0-.505.254-.896.762-1.146.516-.254.758-.637.758-1.145s.073-1.146.194-1.908l.577-1.145v-3.054c-.375-1.02-.988-2.544-1.811-4.585-.835-2.033-1.496-3.053-2.009-3.053-.5-1.525-.758-4.062-.758-7.631 0-.38.258-3.436.758-9.16.513-6.61 1.529-11.183 3.053-13.732v-.758h.767c.512 0 1.012.258 1.524.762.5 4.577.758 8.397.758 11.446a30.43 30.43 0 01-.758 6.868l-.762 1.525v2.283c-.508.895-1.016 1.407-1.529 1.524l-.758-.758-.762-.766v-.759c-1.529.509-2.287 1.783-2.287 3.82v1.524c0 .505.258.759.758.759.513 1.02 1.529 1.524 3.053 1.524 1.92 0 3.179-1.012 3.816-3.049l.766-3.82c.508-.503 1.242-1.524 2.194-3.048a28.026 28.026 0 002.384-4.772v-5.15c0-5.598-1.02-10.176-3.053-13.737-1.017-1.524-2.541-2.287-4.582-2.287-5.082 1.017-8.901 4.836-11.446 11.442-1.02 2.42-1.779 6.494-2.287 12.213 0 1.02-.258 1.524-.758 1.524l-.762-.766h-1.533c-1.395 0-3.174.766-5.332 2.29-2.04 2.42-3.565 4.958-4.586 7.632-1.024 3.049-1.528 7.13-1.528 12.212.504 2.029 1.27 4.323 2.287 6.868.383 0 .863.505 1.431 1.525.581 1.02 1.118 1.779 1.618 2.287.512.512 1.024.766 1.528.766 0 .504.25.758.767.758h.758c.512.512.895 1.017 1.145 1.529.254.508.577.758.956.758 1.016.895 2.347 1.4 4.005 1.525h1.529l-.763-.952-.762-.573c-.508-.508-.891-1.145-1.141-1.908a4.928 4.928 0 00-1.142-1.911c0-.508-.29-1.013-.863-1.525-.572-.504-.859-1.012-.859-1.524-.383-.888-.83-2.674-1.33-5.344-1.03-3.05-1.53-4.832-1.53-5.336v-.766c0-1.013.255-2.545.759-4.578 1.024-1.904 2.033-2.928 3.053-3.05.512 0 .77.255.77.76v.77c.5 0 .759.25.759.758l-.759 3.053-1.339 1.145c-.258.262-.383.641-.383 1.146v1.524c0 .891.569 1.662 1.722 2.29.5 0 1.263-.318 2.283-.95.508-.388 1.016-1.848 1.529-4.389.504 1.016 1.262 2.166 2.282 3.428 1.02 1.283 1.525 2.42 1.525 3.44.508 1.017 1.02 2.795 1.537 5.344v5.336m2.303 35.657c-1.02 5.598-1.759 10.76-1.759 11.269 0 1.02.125 2.037.38 3.053.253 1.016.89 1.52 1.91 1.52h1.336c1.016 0 1.593-.758 1.718-2.282v-5.917c0-2.545-.258-4.13-.766-4.771 2.044.512 3.815.766 5.344.766-1.017 1.908-1.529 4.199-1.529 6.865 0 2.036.254 3.31.77 3.82-3.186.89-5.985 2.16-8.397 3.814 0 .505-.258.896-.762 1.146-.512.254-1.024.633-1.524 1.137l-2.295 1.533c2.549-1.533 5.848-2.42 9.93-2.674 4.06-.25 9.534-.508 16.398-.766 6.869-.255 11.071-.38 12.596-.38l.375-.379c.258-.25.637-.387 1.15-.387h-.76c-1.524-1.008-3.06-1.774-4.58-2.283 1.016 0 1.52-1.524 1.52-4.585v-1.525c-.339-8.062-2.456-9.228-2.456-10.482l-5.026-.625-12.144 4.19z" fill="#00082d" /><path d="M81.704 138.055c5.59-.504 8.393-2.787 8.393-6.86v-2.291h11.442c1.016 0 2.286-.505 3.819-1.525 2.029-1.02 3.053-1.779 3.053-2.29l-.766-.759c-.5-1.02-1.27-1.525-2.283-1.525h-.766c-.896 0-2.42.505-4.578 1.525-1.528.504-4.582 1.016-9.16 1.525H87.81c-.383 0-.758-.13-1.15-.38l-.375-.387H83.99c-4.07 0-7.122.512-9.159 1.525-1.016-1.009-2.033-1.525-3.049-1.525h-.948c-.387 1.017-.576 1.783-.576 2.291v.758c0 .512.19 1.02.576 1.533.5.504 1.84.758 3.997.758.512 0 .762-.254.762-.758v-2.291c1.533 0 3.062.254 4.586.758 3.17 1.02 4.703 1.787 4.582 2.291l-1.15 1.146-1.141 1.145c-1.533.504-4.203 1.113-8.01 1.815-3.815.698-6.49 1.617-8.018 2.763l-.762.383c-.504.258-.883.379-1.133.379-.263 0-1.408-.254-3.445-.758-.504 0-1.27-.38-2.287-1.146-1.012-.758-1.778-1.145-2.286-1.145-1.908-1.525-4.449-2.791-7.631-3.812-1.02 0-1.843-.254-2.48-.766l.947-.758c1.02-1.404 2.037-2.42 3.057-3.061h3.812c.9 0 2.133-.121 3.722-.38 1.59-.253 2.9-.378 3.913-.378 1.911 0 3.436.254 4.577.758l-1.524.766c-.513.38-.763 1.396-.763 3.05v.765l.763.759h1.52c.516 0 1.275-.759 2.291-2.283v-2.291c0-.508-.762-1.02-2.29-1.524-.509 0-1.525-.255-3.05-.767-4.065-1.008-7.639-1.524-10.684-1.524h-2.287c-4.581.516-7.634 2.04-9.159 4.577-1.016 2.037-1.524 3.566-1.524 4.586v.758c0 1.02.254 1.718.766 2.102.504 0 .891.165 1.133.48.254.318.646.471 1.15.471 4.077 1.525 7.554 1.985 9.921 3.057 12.975 5.893 20.162.533 20.162 1.041z" fill="#a00283" /></svg>