<svg xmlns="http://www.w3.org/2000/svg" viewBox="0 0 139.764 200">
  <path d="M66.027 105.108v-.359c0-.238.294-.359.895-.359l.718-2.876 1.432-1.435c1.924-1.795 4.553-2.755 7.9-2.872.48 0 1.679.246 3.598.722.835.355 1.557.593 2.158.714 2.388 1.92 4.485 4.307 6.28 7.183.951 1.319 1.492 2.509 1.617 3.585v.722c.476-.476.952-.722 1.436-.722.952-.476 1.67-.714 2.15-.714 1.431 0 2.629.48 3.593 1.436a4.712 4.712 0 012.154 2.15v3.594l-.363 1.08-.36 1.077-.71.718c-.483 0-.721.246-.721.722h2.154c.951.476 1.435 1.198 1.435 2.15v1.444c0 .96-.246 1.673-.721 2.15-.476.483-1.436.721-2.872.721-.48 0-.778-.238-.895-.722v-2.153c0-.476-.186-.722-.545-.722h-2.867c-1.432 0-2.396-.476-2.872-1.436l-.722-1.432c0-.476.476-1.674 1.432-3.593l.726-.714c.472 0 .952-.238 1.431-.722h1.436v-.896h.714v-.536c0-.96-.714-1.436-2.15-1.436-.96 0-1.677.242-2.157.718h-.714v2.154c0 .484-.125.843-.363 1.08-.238.243-.359.606-.359 1.082-.476.475-.96.717-1.432.717-.484 0-.96-.242-1.44-.717v-3.59l-.35-.722a5.95 5.95 0 00-1.085-1.436c-1.92-2.992-3.352-4.904-4.308-5.743-.956-.96-1.678-1.436-2.154-1.436-1.92-.476-3.117-.722-3.593-.722-1.319 0-2.989.484-5.025 1.44l-1.44 1.436h-.71v1.436h-.726v2.145c.476.484.726.96.726 1.436v1.436c-.488.48-1.262.903-2.335 1.258 0 .476-.182.779-.54.896-.48 0-.723-.29-.723-.896v-.536l.722-.722c0-2.392-2.63-3.59-7.9-3.59h-.723c-2.395 0-4.368.714-5.924 2.154-.36 0-1.255.718-2.694 2.158v.536c-.48.476-.718 1.017-.718 1.618 0 .96.238 1.435.718 1.435.48 1.916 1.915 3.348 4.307 4.308.48 0 1.436.064 2.876.181l2.153.533h1.44v-1.432c.476-.48.714-.956.714-1.436 1.436-1.912 3.118-3.11 5.03-3.585 3.347-1.8 5.985-2.75 7.896-2.876 2.876 0 5.034.96 6.47 2.876.475.476.721.96.721 1.436 0 1.435-.722 2.15-2.153 2.15-.96 0-1.686-.477-2.158-1.433-.476-.48-1.674-.717-3.59-.717h-1.435c-.96 0-2.876.475-5.748 1.435l-4.307 2.154-.722 1.432.722.722c1.916 0 3.598.722 5.03 2.157.358 0 .685.121.983.355.303.242.448.601.448 1.081h5.202c1.199 0 2.094.238 2.695.718 1.436.48 3.11 1.682 5.03 3.59-1.44-.476-3.594-.96-6.466-1.436h-3.593l.718.718.717.718v2.161h2.158c1.79.476 3.465 1.856 5.021 4.126-1.435-.835-2.633-1.254-3.589-1.254H71.23v.714l-.718 1.436h-.718c-.96 0-1.432-.295-1.432-.896v-1.976c0-1.916-.782-3.831-2.335-5.743-2.275-3.473-6.05-5.384-11.313-5.743H46.809c-.96 0-2.218.476-3.775 1.435-.36 0-.779.238-1.255.714-.484.484-.96.722-1.435.722l-.722.718-1.436 2.154c-.476.839-.714 1.795-.714 2.871 0 3.356 2.15 5.744 6.461 7.175 1.44.484 2.876.722 4.308.722h1.443c.472 0 1.311-.117 2.513-.359 1.194-.238 2.27-.363 3.23-.363.473 0 1.315-.112 2.513-.354s2.033-.36 2.513-.36h3.593c.472 0 2.868.239 7.175.714 2.271.484 3.715.96 4.308 1.444 2.396.476 4.311 1.198 5.747 2.15.36.484.803 1.08 1.343 1.795.54.722 1.049 1.44 1.533 2.157.472.722 1.19 1.557 2.15 2.517-.48-.476-1.32-1.198-2.517-2.158-1.194-.951-2.15-1.673-2.872-2.15-.714-.475-1.79-.96-3.226-1.435h-4.308c-.96-.476-2.875-.722-5.751-.722-1.315.484-4.186 1.198-8.615 2.158-2.872.96-5.747 1.432-8.627 1.432-9.212 0-14.955-2.154-17.23-6.466-1.435-1.435-2.15-3.347-2.15-5.743 0-2.395.473-4.07 1.433-5.03h.718v-1.435c1.794-1.912 3.472-3.347 5.025-4.307 1.916-.96 4.07-1.682 6.465-2.158h.726v-.718l-.726-.714c-.956-1.436-1.492-3.11-1.613-5.033 0-.831.302-1.791.9-2.872l.717-2.158c.96-.475 2.158-1.19 3.594-2.15 2.27-1.318 5.146-2.036 8.618-2.157.96 0 2.396.242 4.308.718.956 0 1.92.238 2.88.714h.713l.722.722c.36-.121.54-.843.54-2.158zm-9.873 26.574c0-.96.238-1.435.713-1.435 4.792 3.948 7.426 6.045 7.901 6.283h-1.435c-2.396 0-4.304-.661-5.744-1.976-.955-.476-1.431-1.19-1.431-2.15v-.722zm27.288-5.747l.722-1.436c0-.476-.246-.722-.722-.722l-.714.722h-.726c-.359 0-.839-.238-1.432-.722-.48-.475-.718-.951-.718-1.431 0-.835.238-1.557.718-2.158.476 0 .718.125.718.363s.117.476.36.714c.241.246.596.355 1.084.355h2.872c.952 0 1.915.484 2.875 1.444h.537v1.435c0 .476-.178 1.436-.537 2.872l-.726 2.154c-.472.956-.956 1.44-1.431 1.44-1.436 0-2.396-.484-2.872-1.44-.476-.36-.714-1.073-.714-2.154-.008-.476.23-.96.706-1.436zm16.516 2.872h.718c4.307.839 7.183 2.274 8.618 4.307 0 .484.246 1.081.718 1.795l.726 1.077c.472.363.71.843.71 1.436 0 .96-.472 1.431-1.432 1.431-.472 0-1.077.13-1.79.363l-1.077.36h-.726l-3.586.721c-1.435.96-2.633 1.436-3.597 1.436-1.432.956-2.63 1.674-3.594 2.15-2.395 1.323-4.783 2.036-7.175 2.153-.96 0-2.395-.238-4.307-.722 3.347-.475 5.505-.951 6.465-1.431.476-.476 1.073-.952 1.795-1.436.71-.476 1.31-.952 1.79-1.436.956-.476 2.868-1.198 5.748-2.158.48-.476 1.677-.951 3.59-1.431.475 0 .955-.146 1.435-.448.476-.299.956-.448 1.432-.448h.726v-.54c-.48 0-.726-.238-.726-.714-.476-.476-.956-.722-1.432-.722-1.795-.476-3.715-.718-5.747-.718-2.27 0-4.425.476-6.461 1.436l-2.154.714-.363.181-.807.807c-.298.302-.625.448-.984.448h-2.157c-.48 0-1.436.246-2.872.722h-.714v.713h-.726v.722h-.718c.84-1.911 1.553-3.11 2.154-3.593l1.432-1.432 2.871-2.15 2.158-1.435c2.989-1.315 5.324-2.037 7.006-2.158z" fill="#a00283"/>
  <path d="M99.958 13.168h1.435l.714.722v.714c-.956.96-1.67 2.634-2.15 5.03l5.744-2.154c3.948 0 5.864.714 5.743 2.153 0 .484-2.867 1.432-8.61 2.872-3.473 1.436-5.151 2.396-5.03 2.872l-1.436 2.875h.545l7.356-2.153 2.876-.722c1.432.484 2.15.96 2.15 1.44-1.432 1.435-4.308 2.871-8.62 4.307v.714l2.872 2.157 8.442-2.157-1.255-2.872v-.718h.71l7.901 3.59c0 .96-4.303 2.391-12.926 4.311 4.791 4.783 10.53 7.901 17.233 9.337 1.92.96 2.88 1.912 2.88 2.871v.714c-.48 1.436-1.432 2.158-2.88 2.158-4.307 0-9.098-2.158-14.362-6.465V59.13c-.48 1.79-1.197 2.989-2.15 3.594h-1.44c-.48 0-.955-.722-1.43-2.158h-.723c-3.472 0-6.82.714-10.05 2.158-.96-.484-1.432-.96-1.432-1.444 1.916-1.311 4.783-2.509 8.615-3.59h4.307V52.48c0-6.578-.242-9.877-.718-9.877h-.722c-4.787 0-8.615 2.642-11.486 7.901l6.465-2.15c1.432 0 2.625.476 3.585 1.436l-5.198 6.465h-.545l1.436-4.315h-5.743v.54c0 4.909-.726 7.36-2.158 7.36h-.9c-.354 0-.536-.475-.536-1.43l2.154-14.359h.714c.48 0 .726.714.726 2.15 3.347-3.348 7.175-5.505 11.486-6.465l1.436.722-2.876-2.872c-7.784 1.912-11.611 3.59-11.486 5.021-2.275 4.316-5.63 7.607-10.055 9.877l-5.03 2.34c6.228-6.582 10.294-11.136 12.205-13.649-3.948 1.432-6.34 2.158-7.175 2.158l-.718-.722c0-.952 2.626-2.871 7.893-5.743l3.594-3.593h-.714l-3.598 1.435c-.951 0-1.915-.714-2.867-2.153 6.703-.96 10.05-2.872 10.05-5.744v-.718h-3.59l-3.597-.721v-.714c0-.476 2.158-.96 6.47-1.436 1.915 0 3.057-2.392 3.416-7.183h-1.977c.004-1.069 1.678-2.029 5.03-2.872zM85.596 39.025h.718c2.27-.476 3.468-1.436 3.593-2.872-2.396 1.436-3.831 2.396-4.311 2.872zm7.9-2.154c5.268-1.436 7.902-2.396 7.902-2.872l-2.158-2.157c-3.828.96-5.743 2.633-5.743 5.03z" fill="#870000"/>
  <path d="M20.06 99.36H18.808c-.48.48-1.198.719-2.158.719-3.352 0-5.263-.718-5.743-2.15-.48-.476-.722-.96-.722-1.436V94.34c.956-1.431 3.347-2.157 7.187-2.157.472 0 .835.125 1.073.363s.472.714.722 1.436l.359 1.08 2.867 1.432.367.36.359.354v.722h-1.44l-.722.714zm-2.685 12.927v-2.872c-.484-.951-.726-1.673-.726-2.15 0-1.802.96-3.476 2.876-5.029 1.786-2.875 5.384-4.549 10.768-5.033h.726c7.175 0 13.168 1.682 17.948 5.033h.725c-3.476-.96-7.308-1.435-11.498-1.435h-7.901c-.472 0-1.432.713-2.872 2.15-2.988 1.919-4.424 4.073-4.303 6.464v2.158h-.726v1.44c-.472 0-.83.089-1.08.27-.239.182-.654.266-1.255.266l-1.254.896c-.476-.121-.956-.835-1.428-2.158zm47.393 55.299l.722.721c0 .476-.246 1.198-.722 2.15-.475.96-.955 1.436-1.435 1.436h-.718l-.718-.71-.722-.722v-.714c0-.476-.242-.96-.718-1.431-.48-.476-1.198-.96-2.154-1.436-1.436-.484-3.347-.718-5.747-.718-.96 0-1.678.238-2.158.718-.472 0-1.198.238-2.15.714-.48 0-.717.246-.717.722v.713a12.864 12.864 0 01-3.594 3.594c-.48 0-.96.121-1.436.355-.476.238-.96.359-1.435.359l-.714.722c-.96 0-1.678-.246-2.158-.722l-1.432-1.436-2.158-2.154c-.475-.476-1.431-1.198-2.871-2.157-1.44-.96-2.69-1.674-3.771-2.158-3.356-2.388-7.123-3.824-11.313-4.308h1.44c.472 0 .923-.12 1.343-.359.415-.237.923-.358 1.524-.358h1.432c.48 0 1.44.12 2.876.358 1.44.238 2.63.36 3.593.36h3.59c3.347 0 6.223.245 8.615.721h.726l.713.714 1.436.722h2.158c.472 0 .952.476 1.432 1.436.472 0 .718-.238.718-.722h.717c1.32-.476 2.755-.714 4.312-.714h1.436c.476 0 1.19.121 2.15.355l1.435.359c.363 0 .807.125 1.347.363.54.242 1.049.359 1.525.359.484 0 .956.238 1.436.714.968.6 1.69 1.323 2.165 2.154zM30.293 93.614c-1.79-.476-2.989-1.19-3.585-2.15-1.44-.84-2.158-2.037-2.158-3.594v-.714c0-.475.12-.838.359-1.08l.359-.363c0-.476.117-1.073.363-1.791.242-.718.476-1.194.718-1.436.238-.238.774-.359 1.613-.359h1.617c2.989 0 4.667 1.198 5.021 3.59l-.354 1.08c-.242.718-.363 1.323-.363 1.8 0 .475.12.927.363 1.342.237.424.354.932.354 1.529v2.15l.363.721.363.722H34.6c-.955-.004-2.391-.488-4.307-1.447zm2.158 79c-.96 0-2.158.239-3.594.715l-1.254.363c-.605.242-1.141.359-1.617.359-.956 0-1.436-.722-1.436-2.158l.718-1.436v-1.432h2.153c2.271 0 3.949.484 5.03 1.432h.718l.718 2.158H32.81zm.718-56.733c-2.993-.476-4.913-1.912-5.748-4.308v-4.67c0-.238.186-.593.54-1.073.48-.96 1.26-1.436 2.332-1.436h.726c.472 0 .952.238 1.432.718.476.484.718 1.432.718 2.872v2.153c0 1.432.238 3.11.718 5.03l.717.714zm2.157 58.17h.718l.718.714c-.48 0-.718.238-.718.721-.363.476-.597 1.194-.718 2.154-.48 0-.726.238-.726.718v2.872c0 .476-.475.895-1.431 1.262h-1.436v.895l-.714-.895h-.726c-.956 0-1.734-.181-2.331-.54l-.54-.718v-1.436c0-2.989.96-4.662 2.871-5.03 1.436-.475 2.396-.713 2.876-.713h2.157zm-1.44-121.729v-.359c0-2.988.243-4.428.718-4.307 0-.476.246-.718.726-.718.831-.48 1.404-.714 1.702-.714.295 0 1.166.476 2.606 1.432.476 0 .96.48 1.432 1.436l.367 1.08.359 1.077c0 .476-.25 1.073-.726 1.795-.472.714-.714 1.315-.714 1.79 0 1.437.714 3.118 2.15 5.03h-2.15c-1.436 0-2.634-.714-3.594-2.158-1.315-1.911-2.274-3.347-2.875-4.307zM65.49 161.846c0-.96-.722-1.911-2.157-2.871-1.92-1.92-3.828-3.356-5.744-4.316l-1.431-.714h-.722c0 .476.117.714.359.714.238 0 .363.246.363.722l-.722.718v1.436h.722c0 .484-.484 1.141-1.436 1.976-.48.484-1.436.783-2.876.904-1.319 0-2.508-.476-3.593-1.432 0-1.444.246-2.396.718-2.876h1.976l2.335-2.15v-.721h-2.335a258.935 258.935 0 00-12.749-2.15h-2.154.718c-.48-.48-1.198-.722-2.158-.722H48.25c4.791 0 8.38.484 10.776 1.436.476 0 .952.246 1.432.722l3.598.714c1.306 0 2.27.484 2.867 1.435l.718.722c.476.476.726 1.856.726 4.126 0 .96-.782 2.223-2.335 3.775h-.54zM41.066 104.39v1.254c0 .476.242.779.726.896 0 .484.112.839.354 1.08.242.243.36.602.36 1.077h-.714c-.484.96-1.198 1.436-2.158 1.436-.956 0-1.674-.476-2.15-1.436-.484 0-.722-.6-.722-1.798 0-1.19.238-2.033.722-2.509l.36-.363c.237-.242.588-.359 1.076-.359l.718-.722c.472.004.956.488 1.428 1.444zm0-15.798c.475 0 1.141.238 1.976.714l.9.722v.536l-.537.896c-.242.476-.363.96-.363 1.436l.9.713v.722c0 .476-.295.722-.9.722l-1.976-.722c-1.432-.476-2.15-.955-2.15-1.431v-3.594h-.722c.48-.476 1.436-.714 2.872-.714zm5.033-14.366v-2.158c-.96-4.783-1.44-8.852-1.44-12.208 0-3.948.48-7.058 1.44-9.337v-2.867h.718v-1.432l.718-.722.718-2.872c2.27-8.255 6.582-13.285 12.926-15.08-3.348 1.315-6.22 4.909-8.619 10.769l-2.158 5.03c0 .834-.238 1.794-.71 2.87l-1.44 2.873v7.179c0 5.27.719 11.49 2.15 18.669l.545.722v.714c.476-.476.774-.952.9-1.436.955-.952 1.677-1.432 2.153-1.432h3.593c2.872 0 4.788.484 5.744 1.432.96 0 1.859.96 2.698 2.88a18.39 18.39 0 01.895 4.303c0 2.872-.718 5.267-2.154 7.18-1.435.838-3.11 1.56-5.029 2.157h-1.432c0 .476-.242.714-.718.714-.955 0-1.431.246-1.431.722l.714.713v1.444c0 1.912-.714 3.11-2.15 3.586l-1.436.718c-.48 0-1.077-.238-1.795-.718-.718-.476-1.085-.956-1.085-1.436v-.714c0-.476.246-.96.726-1.432.472-.484.718-.96.718-1.443 0-.476-.298-1.674-.9-3.586l-1.253-3.594c-.488-.96-.96-2.27-1.44-3.948-.48-1.674-.718-2.989-.718-3.948a130.367 130.367 0 00-1.448-4.312zm7.179-11.494l-2.335 1.435v1.436l-.545-.714c-.472-.476-.71-1.197-.71-2.157 0-1.432.238-2.626.71-3.586.367-1.92.843-2.875 1.44-2.875l.718-1.436h4.316c.475 0 .721.246.721.722.476.476.952.96 1.436 1.435v2.158c0 .476-.246 1.198-.722 2.15h-2.15l-.362.355c-.242.246-.597.363-1.077.363-.48.004-.964.242-1.44.714zm.718 17.237c-.956.96-1.436 1.682-1.436 2.158v1.436c.48.476.722.839.722 1.077s.117.597.359 1.073l.359.721c0 .96.242 1.436.722 1.436.476 0 1.19-.238 2.15-.714 1.798-.475 2.988-2.395 3.593-5.75 0-.953-.246-1.913-.722-2.872h-2.871c-.964 0-1.916.484-2.876 1.435zm34.475 79.534c-.96.484-2.637 1.025-5.03 1.617-4.306 1.436-7.662 3.114-10.05 5.03l-1.436.718v1.439c-.483.956-1.435 1.432-2.88 1.432h-.709l-.726.714c-.472 0-1.016-.238-1.61-.714v-1.432l.896-2.88.718-.713v-1.436h1.436c.48-.476 1.44-.722 2.88-.722l.713-.714.726-.722.54-.717c2.981-.84 5.204-1.553 6.64-2.158.475-.476.834-.722 1.076-.722h.36c2.395-.952 4.73-1.432 7-1.432h.9c.476 0 .96-.113 1.432-.359l.726-.359c7.175 0 12.684 1.198 16.516 3.594 3.347.835 5.505 2.754 6.465 5.743h.722v1.436l.359.355c.238.246.359.423.359.54V171.183c0-.476-.242-.722-.718-.722v-1.432c-.964-1.794-2.404-3.468-4.316-5.029l-1.432-.714c-.471-.476-.955-.722-1.431-.722v-.714l-4.308-1.435h-.722c-1.911-.476-4.307-.775-7.179-.904h-7.917zm-15.806-4.844c.84-1.436 1.263-3.11 1.263-5.021v-2.876c.472 0 1.016-.113 1.609-.359l.722-.359h2.15v.718l.721.722v2.872c0 1.319-.48 2.605-1.431 3.864-.96 1.254-1.686 2.363-2.158 3.315h-.718c-.48 0-1.02.125-1.617.363l-.54.355h-.715l-.721.359c-.476.246-.96.363-1.432.363 0-.476.117-.84.359-1.081.238-.238.718-.601 1.431-1.077.722-.476 1.077-.96 1.077-1.436zm50.987 27.293v1.435c0 .476-.238.714-.713.714-.484 0-.96-.238-1.436-.714h-15.084c-2.27 0-4.663-.302-7.18-.895-2.27-.839-3.948-1.5-5.025-1.976-1.915-1.436-3.347-3.832-4.307-7.187v-2.872c0-.952-.15-1.79-.448-2.512-.298-.714-.447-1.32-.447-1.791-.84-.96-2.456-1.436-4.844-1.436-1.432-.476-3.594-.722-6.465-.722 2.871-.952 5.267-1.436 7.175-1.436 1.436 0 2.633.246 3.597.722 1.791.96 2.989 2.396 3.594 4.308.472.484.718.96.718 1.435.472.484.718 1.198.718 2.158v2.872c0 .476.238.714.718.714 0 .838.471 1.798 1.431 2.875 2.275 1.916 7.542 3.11 15.798 3.59h3.593c3.832 0 6.704-.476 8.616-1.436v2.154zm-20.819-33.036h3.586c5.271 0 9.099.722 11.494 2.158.96 1.315 1.432 2.512 1.432 3.585 0 .484-.113 1.323-.355 2.513l-.359 1.803-1.432 1.432c-.484 0-.722-.299-.722-.904l.36-.532.362-.722v-.722h-.722c-.48 0-1.197.246-2.157.722 0 .484-.238.722-.718.722h-.718l-1.44.532c-.472 0-.71-.173-.71-.532v-.722c-.488 0-.726-.117-.726-.355s.238-.839.726-1.799c.472-.476 1.19-.718 2.15-.718h4.311v-.722l-.722-.714v-.722h-.717c-.48-.475-2.404-1.19-5.752-2.15h-5.025c-3.832 0-6.703.239-8.619.715-2.988.839-5.449 1.798-7.36 2.871h-1.263v.722c2.88-2.275 5.929-3.948 9.164-5.03h.536c.238 0 .593-.237 1.08-.713h1.433c1.448-.48 2.4-.718 2.883-.718zm-3.593 20.11l.722-.714v-5.029h-.722.722c1.436.475 2.625 1.435 3.59 2.87l.721.719c.36.835.593 1.556.718 2.153v4.308c-.359.476-.718.96-1.077 1.436l-.363.722-.359.717c-.238.476-.355.835-.355 1.073v.363c-.96.952-1.923 1.436-2.875 1.436h-.722c-1.432 0-2.396-.242-2.872-.718l-.722-2.154c0-.838.238-1.798.722-2.875l.545-.714v-.355c0-.246.387-.722 1.165-1.444.77-.718 1.162-1.315 1.162-1.795zm6.106-16.516h1.073c1.44 0 2.158.242 2.158.713 0 .484-.48.722-1.432.722l-.726.714h-1.436l-.9.363-.54.355c-.476 0-.714-.238-.714-.722 0-.476.238-.714.714-.714.476-.48.956-.96 1.436-1.435h.367zm2.513 22.98c0-.358.113-.81.359-1.347.238-.54.359-1.048.359-1.524v-.722c0-2.388-.238-3.585-.718-3.585.951 0 2.15.475 3.585 1.431l.367.36.178.354c.955 1.916 1.496 3.594 1.613 5.034v2.153c-1.315 1.436-2.509 2.15-3.594 2.15-1.431 0-2.395-.956-2.867-2.872.004-.476.238-.956.718-1.431zm9.34-3.593h.714c.96 0 1.791.363 2.517 1.077.722.722 1.077 1.319 1.077 1.795v2.157c0 1.436-.956 2.396-2.872 2.872l-.363-.355-.359-.359c-1.432-.484-2.15-1.436-2.15-2.872 0-.484.239-.717.718-.717v-1.436l.722-.722v-1.44z" fill="#00082d"/>
</svg>